STARTFONT 2.1
FONT -FontForge-STAR 4 Large Compressed Numbers-Book-R-Normal--24-240-75-75-P-109-ISO10646-1
SIZE 24 75 75
FONTBOUNDINGBOX 13 27 0 0
COMMENT "Generated by fontforge, http://fontforge.sourceforge.net"
COMMENT "Typeface (c) (your company). 2006. All Rights Reserved"
STARTPROPERTIES 39
FOUNDRY "FontForge"
FAMILY_NAME "STAR 4 Large Compressed Numbers"
WEIGHT_NAME "Book"
SLANT "R"
SETWIDTH_NAME "Normal"
ADD_STYLE_NAME ""
PIXEL_SIZE 24
POINT_SIZE 240
RESOLUTION_X 75
RESOLUTION_Y 75
SPACING "P"
AVERAGE_WIDTH 109
CHARSET_REGISTRY "ISO10646"
CHARSET_ENCODING "1"
FONTNAME_REGISTRY ""
CHARSET_COLLECTIONS "ASCII ISOLatin1Encoding ISO8859-2 ISO8859-5 ISO8859-7 ISO8859-9 ISO8859-4 Symbol ISO10646-1"
FONT_NAME "STAR4LargeCompressedNumbers"
FACE_NAME "STAR 4 Large Compressed Numbers"
COPYRIGHT "Typeface (c) (your company). 2006. All Rights Reserved"
FONT_VERSION "1.00 June 25, 2008, initial release"
FONT_ASCENT 19
FONT_DESCENT 5
UNDERLINE_POSITION -3
UNDERLINE_THICKNESS 2
X_HEIGHT 0
CAP_HEIGHT 0
RAW_ASCENT 799
RAW_DESCENT 200
NORM_SPACE 11
RELATIVE_WEIGHT 40
RELATIVE_SETWIDTH 50
SUPERSCRIPT_X 0
SUPERSCRIPT_Y 11
SUPERSCRIPT_SIZE 15
SUBSCRIPT_X 0
SUBSCRIPT_Y 3
SUBSCRIPT_SIZE 15
AVG_LOWERCASE_WIDTH 110
AVG_UPPERCASE_WIDTH 110
ENDPROPERTIES
CHARS 660
STARTCHAR space
ENCODING 32
SWIDTH 475 0
DWIDTH 11 0
BBX 1 1 0 0
BITMAP
00
ENDCHAR
STARTCHAR exclam
ENCODING 33
SWIDTH 475 0
DWIDTH 11 0
BBX 1 1 0 0
BITMAP
00
ENDCHAR
STARTCHAR quotedbl
ENCODING 34
SWIDTH 475 0
DWIDTH 11 0
BBX 1 1 0 0
BITMAP
00
ENDCHAR
STARTCHAR numbersign
ENCODING 35
SWIDTH 475 0
DWIDTH 11 0
BBX 1 1 0 0
BITMAP
00
ENDCHAR
STARTCHAR dollar
ENCODING 36
SWIDTH 475 0
DWIDTH 11 0
BBX 1 1 0 0
BITMAP
00
ENDCHAR
STARTCHAR percent
ENCODING 37
SWIDTH 475 0
DWIDTH 11 0
BBX 1 1 0 0
BITMAP
00
ENDCHAR
STARTCHAR ampersand
ENCODING 38
SWIDTH 475 0
DWIDTH 11 0
BBX 1 1 0 0
BITMAP
00
ENDCHAR
STARTCHAR quotesingle
ENCODING 39
SWIDTH 475 0
DWIDTH 11 0
BBX 1 1 0 0
BITMAP
00
ENDCHAR
STARTCHAR parenleft
ENCODING 40
SWIDTH 475 0
DWIDTH 11 0
BBX 1 1 0 0
BITMAP
00
ENDCHAR
STARTCHAR parenright
ENCODING 41
SWIDTH 475 0
DWIDTH 11 0
BBX 1 1 0 0
BITMAP
00
ENDCHAR
STARTCHAR asterisk
ENCODING 42
SWIDTH 475 0
DWIDTH 11 0
BBX 1 1 0 0
BITMAP
00
ENDCHAR
STARTCHAR plus
ENCODING 43
SWIDTH 475 0
DWIDTH 11 0
BBX 1 1 0 0
BITMAP
00
ENDCHAR
STARTCHAR comma
ENCODING 44
SWIDTH 475 0
DWIDTH 11 0
BBX 1 1 0 0
BITMAP
00
ENDCHAR
STARTCHAR hyphen
ENCODING 45
SWIDTH 475 0
DWIDTH 11 0
BBX 1 1 0 0
BITMAP
00
ENDCHAR
STARTCHAR period
ENCODING 46
SWIDTH 475 0
DWIDTH 11 0
BBX 1 1 0 0
BITMAP
00
ENDCHAR
STARTCHAR slash
ENCODING 47
SWIDTH 475 0
DWIDTH 11 0
BBX 1 1 0 0
BITMAP
00
ENDCHAR
STARTCHAR zero
ENCODING 48
SWIDTH 450 0
DWIDTH 11 0
BBX 10 26 1 1
BITMAP
0400
1F00
3F00
3F00
3180
61C0
6180
6180
60C0
60C0
60C0
60C0
60C0
60C0
60C0
60C0
60C0
60C0
60C0
E180
6180
6180
3180
3F80
1F00
1E00
ENDCHAR
STARTCHAR one
ENCODING 49
SWIDTH 272 0
DWIDTH 7 0
BBX 6 26 1 0
BITMAP
18
18
1C
38
38
F8
F8
18
18
18
18
18
18
18
18
18
18
18
18
18
18
18
18
18
18
18
ENDCHAR
STARTCHAR two
ENCODING 50
SWIDTH 450 0
DWIDTH 11 0
BBX 10 27 1 0
BITMAP
0400
1F00
3F00
3B80
3380
61C0
7180
60C0
60C0
00C0
0180
0180
0180
0380
0700
0700
0E00
1C00
3800
7000
7000
6000
6000
6000
FF80
FF80
FF80
ENDCHAR
STARTCHAR three
ENCODING 51
SWIDTH 450 0
DWIDTH 11 0
BBX 10 26 1 0
BITMAP
1C00
3F00
3F80
61C0
6180
6180
6180
6180
0180
0380
0700
0700
0780
0780
0180
00C0
00C0
60C0
60C0
60C0
E0C0
7180
7180
3F80
1F80
0E00
ENDCHAR
STARTCHAR four
ENCODING 52
SWIDTH 450 0
DWIDTH 11 0
BBX 10 26 1 0
BITMAP
0300
0380
0700
0700
0780
0F00
0F00
0F80
1B00
1F00
1B00
3300
7300
3300
6300
E300
7FC0
7FC0
7FC0
0300
0300
0300
0300
0300
0300
0300
ENDCHAR
STARTCHAR five
ENCODING 53
SWIDTH 450 0
DWIDTH 11 0
BBX 10 26 1 0
BITMAP
3FC0
7F80
7F80
3000
3000
6000
6000
6000
7C00
7F80
7F80
FF80
7180
00C0
00C0
00C0
01C0
01C0
00C0
60C0
60C0
7180
6780
3F80
3F00
0C00
ENDCHAR
STARTCHAR six
ENCODING 54
SWIDTH 450 0
DWIDTH 11 0
BBX 10 27 0 0
BITMAP
0400
1F00
3F00
3F80
7180
60C0
60C0
E000
6000
6000
6400
7F80
7F80
7FC0
70C0
E1C0
E0C0
60C0
60C0
60C0
E0C0
61C0
60C0
31C0
7F80
1F80
0F00
ENDCHAR
STARTCHAR seven
ENCODING 55
SWIDTH 450 0
DWIDTH 11 0
BBX 10 26 1 0
BITMAP
FF80
FF80
FF80
01C0
0180
0380
0300
0600
0600
0600
0C00
0C00
1C00
0C00
0C00
1800
1C00
1800
1800
1800
3000
3000
3000
3800
7000
7000
ENDCHAR
STARTCHAR eight
ENCODING 56
SWIDTH 450 0
DWIDTH 11 0
BBX 10 27 1 0
BITMAP
0400
1F00
3F00
3F80
6380
6180
E180
E180
6180
6180
3180
3F00
1E00
3F80
7F80
6180
6180
60C0
60C0
60C0
60C0
6180
7180
7380
3F80
3F80
0E00
ENDCHAR
STARTCHAR nine
ENCODING 57
SWIDTH 450 0
DWIDTH 11 0
BBX 11 27 0 0
BITMAP
0400
1F00
3F80
3F80
6180
7180
60C0
61C0
60E0
60E0
60E0
60E0
E1C0
61C0
73C0
3FC0
3EC0
00C0
00C0
00C0
60C0
6180
6180
3380
3F00
1F00
0E00
ENDCHAR
STARTCHAR colon
ENCODING 58
SWIDTH 475 0
DWIDTH 11 0
BBX 1 1 0 0
BITMAP
00
ENDCHAR
STARTCHAR semicolon
ENCODING 59
SWIDTH 475 0
DWIDTH 11 0
BBX 1 1 0 0
BITMAP
00
ENDCHAR
STARTCHAR less
ENCODING 60
SWIDTH 475 0
DWIDTH 11 0
BBX 1 1 0 0
BITMAP
00
ENDCHAR
STARTCHAR equal
ENCODING 61
SWIDTH 475 0
DWIDTH 11 0
BBX 1 1 0 0
BITMAP
00
ENDCHAR
STARTCHAR greater
ENCODING 62
SWIDTH 475 0
DWIDTH 11 0
BBX 1 1 0 0
BITMAP
00
ENDCHAR
STARTCHAR question
ENCODING 63
SWIDTH 475 0
DWIDTH 11 0
BBX 1 1 0 0
BITMAP
00
ENDCHAR
STARTCHAR at
ENCODING 64
SWIDTH 475 0
DWIDTH 11 0
BBX 1 1 0 0
BITMAP
00
ENDCHAR
STARTCHAR A
ENCODING 65
SWIDTH 475 0
DWIDTH 11 0
BBX 1 1 0 0
BITMAP
00
ENDCHAR
STARTCHAR B
ENCODING 66
SWIDTH 475 0
DWIDTH 11 0
BBX 1 1 0 0
BITMAP
00
ENDCHAR
STARTCHAR C
ENCODING 67
SWIDTH 475 0
DWIDTH 11 0
BBX 1 1 0 0
BITMAP
00
ENDCHAR
STARTCHAR D
ENCODING 68
SWIDTH 475 0
DWIDTH 11 0
BBX 1 1 0 0
BITMAP
00
ENDCHAR
STARTCHAR E
ENCODING 69
SWIDTH 475 0
DWIDTH 11 0
BBX 1 1 0 0
BITMAP
00
ENDCHAR
STARTCHAR F
ENCODING 70
SWIDTH 475 0
DWIDTH 11 0
BBX 1 1 0 0
BITMAP
00
ENDCHAR
STARTCHAR G
ENCODING 71
SWIDTH 475 0
DWIDTH 11 0
BBX 1 1 0 0
BITMAP
00
ENDCHAR
STARTCHAR H
ENCODING 72
SWIDTH 475 0
DWIDTH 11 0
BBX 1 1 0 0
BITMAP
00
ENDCHAR
STARTCHAR I
ENCODING 73
SWIDTH 475 0
DWIDTH 11 0
BBX 1 1 0 0
BITMAP
00
ENDCHAR
STARTCHAR J
ENCODING 74
SWIDTH 475 0
DWIDTH 11 0
BBX 1 1 0 0
BITMAP
00
ENDCHAR
STARTCHAR K
ENCODING 75
SWIDTH 475 0
DWIDTH 11 0
BBX 1 1 0 0
BITMAP
00
ENDCHAR
STARTCHAR L
ENCODING 76
SWIDTH 475 0
DWIDTH 11 0
BBX 1 1 0 0
BITMAP
00
ENDCHAR
STARTCHAR M
ENCODING 77
SWIDTH 475 0
DWIDTH 11 0
BBX 1 1 0 0
BITMAP
00
ENDCHAR
STARTCHAR N
ENCODING 78
SWIDTH 475 0
DWIDTH 11 0
BBX 1 1 0 0
BITMAP
00
ENDCHAR
STARTCHAR O
ENCODING 79
SWIDTH 475 0
DWIDTH 11 0
BBX 1 1 0 0
BITMAP
00
ENDCHAR
STARTCHAR P
ENCODING 80
SWIDTH 475 0
DWIDTH 11 0
BBX 1 1 0 0
BITMAP
00
ENDCHAR
STARTCHAR Q
ENCODING 81
SWIDTH 475 0
DWIDTH 11 0
BBX 1 1 0 0
BITMAP
00
ENDCHAR
STARTCHAR R
ENCODING 82
SWIDTH 475 0
DWIDTH 11 0
BBX 1 1 0 0
BITMAP
00
ENDCHAR
STARTCHAR S
ENCODING 83
SWIDTH 475 0
DWIDTH 11 0
BBX 1 1 0 0
BITMAP
00
ENDCHAR
STARTCHAR T
ENCODING 84
SWIDTH 475 0
DWIDTH 11 0
BBX 1 1 0 0
BITMAP
00
ENDCHAR
STARTCHAR U
ENCODING 85
SWIDTH 475 0
DWIDTH 11 0
BBX 1 1 0 0
BITMAP
00
ENDCHAR
STARTCHAR V
ENCODING 86
SWIDTH 475 0
DWIDTH 11 0
BBX 1 1 0 0
BITMAP
00
ENDCHAR
STARTCHAR W
ENCODING 87
SWIDTH 475 0
DWIDTH 11 0
BBX 1 1 0 0
BITMAP
00
ENDCHAR
STARTCHAR X
ENCODING 88
SWIDTH 475 0
DWIDTH 11 0
BBX 1 1 0 0
BITMAP
00
ENDCHAR
STARTCHAR Y
ENCODING 89
SWIDTH 475 0
DWIDTH 11 0
BBX 1 1 0 0
BITMAP
00
ENDCHAR
STARTCHAR Z
ENCODING 90
SWIDTH 475 0
DWIDTH 11 0
BBX 1 1 0 0
BITMAP
00
ENDCHAR
STARTCHAR bracketleft
ENCODING 91
SWIDTH 475 0
DWIDTH 11 0
BBX 1 1 0 0
BITMAP
00
ENDCHAR
STARTCHAR backslash
ENCODING 92
SWIDTH 475 0
DWIDTH 11 0
BBX 1 1 0 0
BITMAP
00
ENDCHAR
STARTCHAR bracketright
ENCODING 93
SWIDTH 475 0
DWIDTH 11 0
BBX 1 1 0 0
BITMAP
00
ENDCHAR
STARTCHAR asciicircum
ENCODING 94
SWIDTH 475 0
DWIDTH 11 0
BBX 1 1 0 0
BITMAP
00
ENDCHAR
STARTCHAR underscore
ENCODING 95
SWIDTH 475 0
DWIDTH 11 0
BBX 1 1 0 0
BITMAP
00
ENDCHAR
STARTCHAR grave
ENCODING 96
SWIDTH 475 0
DWIDTH 11 0
BBX 1 1 0 0
BITMAP
00
ENDCHAR
STARTCHAR a
ENCODING 97
SWIDTH 475 0
DWIDTH 11 0
BBX 1 1 0 0
BITMAP
00
ENDCHAR
STARTCHAR b
ENCODING 98
SWIDTH 475 0
DWIDTH 11 0
BBX 1 1 0 0
BITMAP
00
ENDCHAR
STARTCHAR c
ENCODING 99
SWIDTH 475 0
DWIDTH 11 0
BBX 1 1 0 0
BITMAP
00
ENDCHAR
STARTCHAR d
ENCODING 100
SWIDTH 475 0
DWIDTH 11 0
BBX 1 1 0 0
BITMAP
00
ENDCHAR
STARTCHAR e
ENCODING 101
SWIDTH 475 0
DWIDTH 11 0
BBX 1 1 0 0
BITMAP
00
ENDCHAR
STARTCHAR f
ENCODING 102
SWIDTH 475 0
DWIDTH 11 0
BBX 1 1 0 0
BITMAP
00
ENDCHAR
STARTCHAR g
ENCODING 103
SWIDTH 475 0
DWIDTH 11 0
BBX 1 1 0 0
BITMAP
00
ENDCHAR
STARTCHAR h
ENCODING 104
SWIDTH 475 0
DWIDTH 11 0
BBX 1 1 0 0
BITMAP
00
ENDCHAR
STARTCHAR i
ENCODING 105
SWIDTH 475 0
DWIDTH 11 0
BBX 1 1 0 0
BITMAP
00
ENDCHAR
STARTCHAR j
ENCODING 106
SWIDTH 475 0
DWIDTH 11 0
BBX 1 1 0 0
BITMAP
00
ENDCHAR
STARTCHAR k
ENCODING 107
SWIDTH 475 0
DWIDTH 11 0
BBX 1 1 0 0
BITMAP
00
ENDCHAR
STARTCHAR l
ENCODING 108
SWIDTH 475 0
DWIDTH 11 0
BBX 1 1 0 0
BITMAP
00
ENDCHAR
STARTCHAR m
ENCODING 109
SWIDTH 475 0
DWIDTH 11 0
BBX 1 1 0 0
BITMAP
00
ENDCHAR
STARTCHAR n
ENCODING 110
SWIDTH 475 0
DWIDTH 11 0
BBX 1 1 0 0
BITMAP
00
ENDCHAR
STARTCHAR o
ENCODING 111
SWIDTH 475 0
DWIDTH 11 0
BBX 1 1 0 0
BITMAP
00
ENDCHAR
STARTCHAR p
ENCODING 112
SWIDTH 475 0
DWIDTH 11 0
BBX 1 1 0 0
BITMAP
00
ENDCHAR
STARTCHAR q
ENCODING 113
SWIDTH 475 0
DWIDTH 11 0
BBX 1 1 0 0
BITMAP
00
ENDCHAR
STARTCHAR r
ENCODING 114
SWIDTH 475 0
DWIDTH 11 0
BBX 1 1 0 0
BITMAP
00
ENDCHAR
STARTCHAR s
ENCODING 115
SWIDTH 475 0
DWIDTH 11 0
BBX 1 1 0 0
BITMAP
00
ENDCHAR
STARTCHAR t
ENCODING 116
SWIDTH 475 0
DWIDTH 11 0
BBX 1 1 0 0
BITMAP
00
ENDCHAR
STARTCHAR u
ENCODING 117
SWIDTH 475 0
DWIDTH 11 0
BBX 1 1 0 0
BITMAP
00
ENDCHAR
STARTCHAR v
ENCODING 118
SWIDTH 475 0
DWIDTH 11 0
BBX 1 1 0 0
BITMAP
00
ENDCHAR
STARTCHAR w
ENCODING 119
SWIDTH 475 0
DWIDTH 11 0
BBX 1 1 0 0
BITMAP
00
ENDCHAR
STARTCHAR x
ENCODING 120
SWIDTH 475 0
DWIDTH 11 0
BBX 1 1 0 0
BITMAP
00
ENDCHAR
STARTCHAR y
ENCODING 121
SWIDTH 475 0
DWIDTH 11 0
BBX 1 1 0 0
BITMAP
00
ENDCHAR
STARTCHAR z
ENCODING 122
SWIDTH 475 0
DWIDTH 11 0
BBX 1 1 0 0
BITMAP
00
ENDCHAR
STARTCHAR braceleft
ENCODING 123
SWIDTH 475 0
DWIDTH 11 0
BBX 1 1 0 0
BITMAP
00
ENDCHAR
STARTCHAR bar
ENCODING 124
SWIDTH 475 0
DWIDTH 11 0
BBX 1 1 0 0
BITMAP
00
ENDCHAR
STARTCHAR braceright
ENCODING 125
SWIDTH 475 0
DWIDTH 11 0
BBX 1 1 0 0
BITMAP
00
ENDCHAR
STARTCHAR asciitilde
ENCODING 126
SWIDTH 475 0
DWIDTH 11 0
BBX 1 1 0 0
BITMAP
00
ENDCHAR
STARTCHAR space.dup1
ENCODING 160
SWIDTH 475 0
DWIDTH 11 0
BBX 1 1 0 0
BITMAP
00
ENDCHAR
STARTCHAR exclamdown
ENCODING 161
SWIDTH 475 0
DWIDTH 11 0
BBX 1 1 0 0
BITMAP
00
ENDCHAR
STARTCHAR cent
ENCODING 162
SWIDTH 475 0
DWIDTH 11 0
BBX 1 1 0 0
BITMAP
00
ENDCHAR
STARTCHAR sterling
ENCODING 163
SWIDTH 475 0
DWIDTH 11 0
BBX 1 1 0 0
BITMAP
00
ENDCHAR
STARTCHAR currency
ENCODING 164
SWIDTH 475 0
DWIDTH 11 0
BBX 1 1 0 0
BITMAP
00
ENDCHAR
STARTCHAR yen
ENCODING 165
SWIDTH 475 0
DWIDTH 11 0
BBX 1 1 0 0
BITMAP
00
ENDCHAR
STARTCHAR brokenbar
ENCODING 166
SWIDTH 475 0
DWIDTH 11 0
BBX 1 1 0 0
BITMAP
00
ENDCHAR
STARTCHAR section
ENCODING 167
SWIDTH 475 0
DWIDTH 11 0
BBX 1 1 0 0
BITMAP
00
ENDCHAR
STARTCHAR dieresis
ENCODING 168
SWIDTH 475 0
DWIDTH 11 0
BBX 1 1 0 0
BITMAP
00
ENDCHAR
STARTCHAR copyright
ENCODING 169
SWIDTH 475 0
DWIDTH 11 0
BBX 1 1 0 0
BITMAP
00
ENDCHAR
STARTCHAR ordfeminine
ENCODING 170
SWIDTH 475 0
DWIDTH 11 0
BBX 1 1 0 0
BITMAP
00
ENDCHAR
STARTCHAR guillemotleft
ENCODING 171
SWIDTH 475 0
DWIDTH 11 0
BBX 1 1 0 0
BITMAP
00
ENDCHAR
STARTCHAR logicalnot
ENCODING 172
SWIDTH 475 0
DWIDTH 11 0
BBX 1 1 0 0
BITMAP
00
ENDCHAR
STARTCHAR hyphen.dup2
ENCODING 173
SWIDTH 475 0
DWIDTH 11 0
BBX 1 1 0 0
BITMAP
00
ENDCHAR
STARTCHAR registered
ENCODING 174
SWIDTH 475 0
DWIDTH 11 0
BBX 1 1 0 0
BITMAP
00
ENDCHAR
STARTCHAR macron
ENCODING 175
SWIDTH 475 0
DWIDTH 11 0
BBX 1 1 0 0
BITMAP
00
ENDCHAR
STARTCHAR degree
ENCODING 176
SWIDTH 475 0
DWIDTH 11 0
BBX 1 1 0 0
BITMAP
00
ENDCHAR
STARTCHAR plusminus
ENCODING 177
SWIDTH 475 0
DWIDTH 11 0
BBX 1 1 0 0
BITMAP
00
ENDCHAR
STARTCHAR uni00B2
ENCODING 178
SWIDTH 475 0
DWIDTH 11 0
BBX 1 1 0 0
BITMAP
00
ENDCHAR
STARTCHAR uni00B3
ENCODING 179
SWIDTH 475 0
DWIDTH 11 0
BBX 1 1 0 0
BITMAP
00
ENDCHAR
STARTCHAR acute
ENCODING 180
SWIDTH 475 0
DWIDTH 11 0
BBX 1 1 0 0
BITMAP
00
ENDCHAR
STARTCHAR mu
ENCODING 181
SWIDTH 475 0
DWIDTH 11 0
BBX 1 1 0 0
BITMAP
00
ENDCHAR
STARTCHAR paragraph
ENCODING 182
SWIDTH 475 0
DWIDTH 11 0
BBX 1 1 0 0
BITMAP
00
ENDCHAR
STARTCHAR periodcentered
ENCODING 183
SWIDTH 475 0
DWIDTH 11 0
BBX 1 1 0 0
BITMAP
00
ENDCHAR
STARTCHAR cedilla
ENCODING 184
SWIDTH 475 0
DWIDTH 11 0
BBX 1 1 0 0
BITMAP
00
ENDCHAR
STARTCHAR uni00B9
ENCODING 185
SWIDTH 475 0
DWIDTH 11 0
BBX 1 1 0 0
BITMAP
00
ENDCHAR
STARTCHAR ordmasculine
ENCODING 186
SWIDTH 475 0
DWIDTH 11 0
BBX 1 1 0 0
BITMAP
00
ENDCHAR
STARTCHAR guillemotright
ENCODING 187
SWIDTH 475 0
DWIDTH 11 0
BBX 1 1 0 0
BITMAP
00
ENDCHAR
STARTCHAR onequarter
ENCODING 188
SWIDTH 475 0
DWIDTH 11 0
BBX 1 1 0 0
BITMAP
00
ENDCHAR
STARTCHAR onehalf
ENCODING 189
SWIDTH 475 0
DWIDTH 11 0
BBX 1 1 0 0
BITMAP
00
ENDCHAR
STARTCHAR threequarters
ENCODING 190
SWIDTH 475 0
DWIDTH 11 0
BBX 1 1 0 0
BITMAP
00
ENDCHAR
STARTCHAR questiondown
ENCODING 191
SWIDTH 475 0
DWIDTH 11 0
BBX 1 1 0 0
BITMAP
00
ENDCHAR
STARTCHAR Agrave
ENCODING 192
SWIDTH 475 0
DWIDTH 11 0
BBX 1 1 0 0
BITMAP
00
ENDCHAR
STARTCHAR Aacute
ENCODING 193
SWIDTH 475 0
DWIDTH 11 0
BBX 1 1 0 0
BITMAP
00
ENDCHAR
STARTCHAR Acircumflex
ENCODING 194
SWIDTH 475 0
DWIDTH 11 0
BBX 1 1 0 0
BITMAP
00
ENDCHAR
STARTCHAR Atilde
ENCODING 195
SWIDTH 475 0
DWIDTH 11 0
BBX 1 1 0 0
BITMAP
00
ENDCHAR
STARTCHAR Adieresis
ENCODING 196
SWIDTH 475 0
DWIDTH 11 0
BBX 1 1 0 0
BITMAP
00
ENDCHAR
STARTCHAR Aring
ENCODING 197
SWIDTH 475 0
DWIDTH 11 0
BBX 1 1 0 0
BITMAP
00
ENDCHAR
STARTCHAR AE
ENCODING 198
SWIDTH 475 0
DWIDTH 11 0
BBX 1 1 0 0
BITMAP
00
ENDCHAR
STARTCHAR Ccedilla
ENCODING 199
SWIDTH 475 0
DWIDTH 11 0
BBX 1 1 0 0
BITMAP
00
ENDCHAR
STARTCHAR Egrave
ENCODING 200
SWIDTH 475 0
DWIDTH 11 0
BBX 1 1 0 0
BITMAP
00
ENDCHAR
STARTCHAR Eacute
ENCODING 201
SWIDTH 475 0
DWIDTH 11 0
BBX 1 1 0 0
BITMAP
00
ENDCHAR
STARTCHAR Ecircumflex
ENCODING 202
SWIDTH 475 0
DWIDTH 11 0
BBX 1 1 0 0
BITMAP
00
ENDCHAR
STARTCHAR Edieresis
ENCODING 203
SWIDTH 475 0
DWIDTH 11 0
BBX 1 1 0 0
BITMAP
00
ENDCHAR
STARTCHAR Igrave
ENCODING 204
SWIDTH 475 0
DWIDTH 11 0
BBX 1 1 0 0
BITMAP
00
ENDCHAR
STARTCHAR Iacute
ENCODING 205
SWIDTH 475 0
DWIDTH 11 0
BBX 1 1 0 0
BITMAP
00
ENDCHAR
STARTCHAR Icircumflex
ENCODING 206
SWIDTH 475 0
DWIDTH 11 0
BBX 1 1 0 0
BITMAP
00
ENDCHAR
STARTCHAR Idieresis
ENCODING 207
SWIDTH 475 0
DWIDTH 11 0
BBX 1 1 0 0
BITMAP
00
ENDCHAR
STARTCHAR Eth
ENCODING 208
SWIDTH 475 0
DWIDTH 11 0
BBX 1 1 0 0
BITMAP
00
ENDCHAR
STARTCHAR Ntilde
ENCODING 209
SWIDTH 475 0
DWIDTH 11 0
BBX 1 1 0 0
BITMAP
00
ENDCHAR
STARTCHAR Ograve
ENCODING 210
SWIDTH 475 0
DWIDTH 11 0
BBX 1 1 0 0
BITMAP
00
ENDCHAR
STARTCHAR Oacute
ENCODING 211
SWIDTH 475 0
DWIDTH 11 0
BBX 1 1 0 0
BITMAP
00
ENDCHAR
STARTCHAR Ocircumflex
ENCODING 212
SWIDTH 475 0
DWIDTH 11 0
BBX 1 1 0 0
BITMAP
00
ENDCHAR
STARTCHAR Otilde
ENCODING 213
SWIDTH 475 0
DWIDTH 11 0
BBX 1 1 0 0
BITMAP
00
ENDCHAR
STARTCHAR Odieresis
ENCODING 214
SWIDTH 475 0
DWIDTH 11 0
BBX 1 1 0 0
BITMAP
00
ENDCHAR
STARTCHAR multiply
ENCODING 215
SWIDTH 475 0
DWIDTH 11 0
BBX 1 1 0 0
BITMAP
00
ENDCHAR
STARTCHAR Oslash
ENCODING 216
SWIDTH 475 0
DWIDTH 11 0
BBX 1 1 0 0
BITMAP
00
ENDCHAR
STARTCHAR Ugrave
ENCODING 217
SWIDTH 475 0
DWIDTH 11 0
BBX 1 1 0 0
BITMAP
00
ENDCHAR
STARTCHAR Uacute
ENCODING 218
SWIDTH 475 0
DWIDTH 11 0
BBX 1 1 0 0
BITMAP
00
ENDCHAR
STARTCHAR Ucircumflex
ENCODING 219
SWIDTH 475 0
DWIDTH 11 0
BBX 1 1 0 0
BITMAP
00
ENDCHAR
STARTCHAR Udieresis
ENCODING 220
SWIDTH 475 0
DWIDTH 11 0
BBX 1 1 0 0
BITMAP
00
ENDCHAR
STARTCHAR Yacute
ENCODING 221
SWIDTH 475 0
DWIDTH 11 0
BBX 1 1 0 0
BITMAP
00
ENDCHAR
STARTCHAR Thorn
ENCODING 222
SWIDTH 475 0
DWIDTH 11 0
BBX 1 1 0 0
BITMAP
00
ENDCHAR
STARTCHAR germandbls
ENCODING 223
SWIDTH 475 0
DWIDTH 11 0
BBX 1 1 0 0
BITMAP
00
ENDCHAR
STARTCHAR agrave
ENCODING 224
SWIDTH 475 0
DWIDTH 11 0
BBX 1 1 0 0
BITMAP
00
ENDCHAR
STARTCHAR aacute
ENCODING 225
SWIDTH 475 0
DWIDTH 11 0
BBX 1 1 0 0
BITMAP
00
ENDCHAR
STARTCHAR acircumflex
ENCODING 226
SWIDTH 475 0
DWIDTH 11 0
BBX 1 1 0 0
BITMAP
00
ENDCHAR
STARTCHAR atilde
ENCODING 227
SWIDTH 475 0
DWIDTH 11 0
BBX 1 1 0 0
BITMAP
00
ENDCHAR
STARTCHAR adieresis
ENCODING 228
SWIDTH 475 0
DWIDTH 11 0
BBX 1 1 0 0
BITMAP
00
ENDCHAR
STARTCHAR aring
ENCODING 229
SWIDTH 475 0
DWIDTH 11 0
BBX 1 1 0 0
BITMAP
00
ENDCHAR
STARTCHAR ae
ENCODING 230
SWIDTH 475 0
DWIDTH 11 0
BBX 1 1 0 0
BITMAP
00
ENDCHAR
STARTCHAR ccedilla
ENCODING 231
SWIDTH 475 0
DWIDTH 11 0
BBX 1 1 0 0
BITMAP
00
ENDCHAR
STARTCHAR egrave
ENCODING 232
SWIDTH 475 0
DWIDTH 11 0
BBX 1 1 0 0
BITMAP
00
ENDCHAR
STARTCHAR eacute
ENCODING 233
SWIDTH 475 0
DWIDTH 11 0
BBX 1 1 0 0
BITMAP
00
ENDCHAR
STARTCHAR ecircumflex
ENCODING 234
SWIDTH 475 0
DWIDTH 11 0
BBX 1 1 0 0
BITMAP
00
ENDCHAR
STARTCHAR edieresis
ENCODING 235
SWIDTH 475 0
DWIDTH 11 0
BBX 1 1 0 0
BITMAP
00
ENDCHAR
STARTCHAR igrave
ENCODING 236
SWIDTH 475 0
DWIDTH 11 0
BBX 1 1 0 0
BITMAP
00
ENDCHAR
STARTCHAR iacute
ENCODING 237
SWIDTH 475 0
DWIDTH 11 0
BBX 1 1 0 0
BITMAP
00
ENDCHAR
STARTCHAR icircumflex
ENCODING 238
SWIDTH 475 0
DWIDTH 11 0
BBX 1 1 0 0
BITMAP
00
ENDCHAR
STARTCHAR idieresis
ENCODING 239
SWIDTH 475 0
DWIDTH 11 0
BBX 1 1 0 0
BITMAP
00
ENDCHAR
STARTCHAR eth
ENCODING 240
SWIDTH 475 0
DWIDTH 11 0
BBX 1 1 0 0
BITMAP
00
ENDCHAR
STARTCHAR ntilde
ENCODING 241
SWIDTH 475 0
DWIDTH 11 0
BBX 1 1 0 0
BITMAP
00
ENDCHAR
STARTCHAR ograve
ENCODING 242
SWIDTH 475 0
DWIDTH 11 0
BBX 1 1 0 0
BITMAP
00
ENDCHAR
STARTCHAR oacute
ENCODING 243
SWIDTH 475 0
DWIDTH 11 0
BBX 1 1 0 0
BITMAP
00
ENDCHAR
STARTCHAR ocircumflex
ENCODING 244
SWIDTH 475 0
DWIDTH 11 0
BBX 1 1 0 0
BITMAP
00
ENDCHAR
STARTCHAR otilde
ENCODING 245
SWIDTH 475 0
DWIDTH 11 0
BBX 1 1 0 0
BITMAP
00
ENDCHAR
STARTCHAR odieresis
ENCODING 246
SWIDTH 475 0
DWIDTH 11 0
BBX 1 1 0 0
BITMAP
00
ENDCHAR
STARTCHAR divide
ENCODING 247
SWIDTH 475 0
DWIDTH 11 0
BBX 1 1 0 0
BITMAP
00
ENDCHAR
STARTCHAR oslash
ENCODING 248
SWIDTH 475 0
DWIDTH 11 0
BBX 1 1 0 0
BITMAP
00
ENDCHAR
STARTCHAR ugrave
ENCODING 249
SWIDTH 475 0
DWIDTH 11 0
BBX 1 1 0 0
BITMAP
00
ENDCHAR
STARTCHAR uacute
ENCODING 250
SWIDTH 475 0
DWIDTH 11 0
BBX 1 1 0 0
BITMAP
00
ENDCHAR
STARTCHAR ucircumflex
ENCODING 251
SWIDTH 475 0
DWIDTH 11 0
BBX 1 1 0 0
BITMAP
00
ENDCHAR
STARTCHAR udieresis
ENCODING 252
SWIDTH 475 0
DWIDTH 11 0
BBX 1 1 0 0
BITMAP
00
ENDCHAR
STARTCHAR yacute
ENCODING 253
SWIDTH 475 0
DWIDTH 11 0
BBX 1 1 0 0
BITMAP
00
ENDCHAR
STARTCHAR thorn
ENCODING 254
SWIDTH 475 0
DWIDTH 11 0
BBX 1 1 0 0
BITMAP
00
ENDCHAR
STARTCHAR ydieresis
ENCODING 255
SWIDTH 475 0
DWIDTH 11 0
BBX 1 1 0 0
BITMAP
00
ENDCHAR
STARTCHAR Amacron
ENCODING 256
SWIDTH 475 0
DWIDTH 11 0
BBX 1 1 0 0
BITMAP
00
ENDCHAR
STARTCHAR amacron
ENCODING 257
SWIDTH 475 0
DWIDTH 11 0
BBX 1 1 0 0
BITMAP
00
ENDCHAR
STARTCHAR Abreve
ENCODING 258
SWIDTH 475 0
DWIDTH 11 0
BBX 1 1 0 0
BITMAP
00
ENDCHAR
STARTCHAR abreve
ENCODING 259
SWIDTH 475 0
DWIDTH 11 0
BBX 1 1 0 0
BITMAP
00
ENDCHAR
STARTCHAR Aogonek
ENCODING 260
SWIDTH 475 0
DWIDTH 11 0
BBX 1 1 0 0
BITMAP
00
ENDCHAR
STARTCHAR aogonek
ENCODING 261
SWIDTH 475 0
DWIDTH 11 0
BBX 1 1 0 0
BITMAP
00
ENDCHAR
STARTCHAR Cacute
ENCODING 262
SWIDTH 475 0
DWIDTH 11 0
BBX 1 1 0 0
BITMAP
00
ENDCHAR
STARTCHAR cacute
ENCODING 263
SWIDTH 475 0
DWIDTH 11 0
BBX 1 1 0 0
BITMAP
00
ENDCHAR
STARTCHAR Ccircumflex
ENCODING 264
SWIDTH 475 0
DWIDTH 11 0
BBX 1 1 0 0
BITMAP
00
ENDCHAR
STARTCHAR ccircumflex
ENCODING 265
SWIDTH 475 0
DWIDTH 11 0
BBX 1 1 0 0
BITMAP
00
ENDCHAR
STARTCHAR Cdotaccent
ENCODING 266
SWIDTH 475 0
DWIDTH 11 0
BBX 1 1 0 0
BITMAP
00
ENDCHAR
STARTCHAR cdotaccent
ENCODING 267
SWIDTH 475 0
DWIDTH 11 0
BBX 1 1 0 0
BITMAP
00
ENDCHAR
STARTCHAR Ccaron
ENCODING 268
SWIDTH 475 0
DWIDTH 11 0
BBX 1 1 0 0
BITMAP
00
ENDCHAR
STARTCHAR ccaron
ENCODING 269
SWIDTH 475 0
DWIDTH 11 0
BBX 1 1 0 0
BITMAP
00
ENDCHAR
STARTCHAR Dcaron
ENCODING 270
SWIDTH 475 0
DWIDTH 11 0
BBX 1 1 0 0
BITMAP
00
ENDCHAR
STARTCHAR dcaron
ENCODING 271
SWIDTH 475 0
DWIDTH 11 0
BBX 1 1 0 0
BITMAP
00
ENDCHAR
STARTCHAR Dcroat
ENCODING 272
SWIDTH 475 0
DWIDTH 11 0
BBX 1 1 0 0
BITMAP
00
ENDCHAR
STARTCHAR dcroat
ENCODING 273
SWIDTH 475 0
DWIDTH 11 0
BBX 1 1 0 0
BITMAP
00
ENDCHAR
STARTCHAR Emacron
ENCODING 274
SWIDTH 475 0
DWIDTH 11 0
BBX 1 1 0 0
BITMAP
00
ENDCHAR
STARTCHAR emacron
ENCODING 275
SWIDTH 475 0
DWIDTH 11 0
BBX 1 1 0 0
BITMAP
00
ENDCHAR
STARTCHAR Ebreve
ENCODING 276
SWIDTH 475 0
DWIDTH 11 0
BBX 1 1 0 0
BITMAP
00
ENDCHAR
STARTCHAR ebreve
ENCODING 277
SWIDTH 475 0
DWIDTH 11 0
BBX 1 1 0 0
BITMAP
00
ENDCHAR
STARTCHAR Edotaccent
ENCODING 278
SWIDTH 475 0
DWIDTH 11 0
BBX 1 1 0 0
BITMAP
00
ENDCHAR
STARTCHAR edotaccent
ENCODING 279
SWIDTH 475 0
DWIDTH 11 0
BBX 1 1 0 0
BITMAP
00
ENDCHAR
STARTCHAR Eogonek
ENCODING 280
SWIDTH 475 0
DWIDTH 11 0
BBX 1 1 0 0
BITMAP
00
ENDCHAR
STARTCHAR eogonek
ENCODING 281
SWIDTH 475 0
DWIDTH 11 0
BBX 1 1 0 0
BITMAP
00
ENDCHAR
STARTCHAR Ecaron
ENCODING 282
SWIDTH 475 0
DWIDTH 11 0
BBX 1 1 0 0
BITMAP
00
ENDCHAR
STARTCHAR ecaron
ENCODING 283
SWIDTH 475 0
DWIDTH 11 0
BBX 1 1 0 0
BITMAP
00
ENDCHAR
STARTCHAR Gcircumflex
ENCODING 284
SWIDTH 475 0
DWIDTH 11 0
BBX 1 1 0 0
BITMAP
00
ENDCHAR
STARTCHAR gcircumflex
ENCODING 285
SWIDTH 475 0
DWIDTH 11 0
BBX 1 1 0 0
BITMAP
00
ENDCHAR
STARTCHAR Gbreve
ENCODING 286
SWIDTH 475 0
DWIDTH 11 0
BBX 1 1 0 0
BITMAP
00
ENDCHAR
STARTCHAR gbreve
ENCODING 287
SWIDTH 475 0
DWIDTH 11 0
BBX 1 1 0 0
BITMAP
00
ENDCHAR
STARTCHAR Gdotaccent
ENCODING 288
SWIDTH 475 0
DWIDTH 11 0
BBX 1 1 0 0
BITMAP
00
ENDCHAR
STARTCHAR gdotaccent
ENCODING 289
SWIDTH 475 0
DWIDTH 11 0
BBX 1 1 0 0
BITMAP
00
ENDCHAR
STARTCHAR Gcommaaccent
ENCODING 290
SWIDTH 475 0
DWIDTH 11 0
BBX 1 1 0 0
BITMAP
00
ENDCHAR
STARTCHAR gcommaaccent
ENCODING 291
SWIDTH 475 0
DWIDTH 11 0
BBX 1 1 0 0
BITMAP
00
ENDCHAR
STARTCHAR Hcircumflex
ENCODING 292
SWIDTH 475 0
DWIDTH 11 0
BBX 1 1 0 0
BITMAP
00
ENDCHAR
STARTCHAR hcircumflex
ENCODING 293
SWIDTH 475 0
DWIDTH 11 0
BBX 1 1 0 0
BITMAP
00
ENDCHAR
STARTCHAR Hbar
ENCODING 294
SWIDTH 475 0
DWIDTH 11 0
BBX 1 1 0 0
BITMAP
00
ENDCHAR
STARTCHAR hbar
ENCODING 295
SWIDTH 475 0
DWIDTH 11 0
BBX 1 1 0 0
BITMAP
00
ENDCHAR
STARTCHAR Itilde
ENCODING 296
SWIDTH 475 0
DWIDTH 11 0
BBX 1 1 0 0
BITMAP
00
ENDCHAR
STARTCHAR itilde
ENCODING 297
SWIDTH 475 0
DWIDTH 11 0
BBX 1 1 0 0
BITMAP
00
ENDCHAR
STARTCHAR Imacron
ENCODING 298
SWIDTH 475 0
DWIDTH 11 0
BBX 1 1 0 0
BITMAP
00
ENDCHAR
STARTCHAR imacron
ENCODING 299
SWIDTH 475 0
DWIDTH 11 0
BBX 1 1 0 0
BITMAP
00
ENDCHAR
STARTCHAR Ibreve
ENCODING 300
SWIDTH 475 0
DWIDTH 11 0
BBX 1 1 0 0
BITMAP
00
ENDCHAR
STARTCHAR ibreve
ENCODING 301
SWIDTH 475 0
DWIDTH 11 0
BBX 1 1 0 0
BITMAP
00
ENDCHAR
STARTCHAR Iogonek
ENCODING 302
SWIDTH 475 0
DWIDTH 11 0
BBX 1 1 0 0
BITMAP
00
ENDCHAR
STARTCHAR iogonek
ENCODING 303
SWIDTH 475 0
DWIDTH 11 0
BBX 1 1 0 0
BITMAP
00
ENDCHAR
STARTCHAR Idotaccent
ENCODING 304
SWIDTH 475 0
DWIDTH 11 0
BBX 1 1 0 0
BITMAP
00
ENDCHAR
STARTCHAR dotlessi
ENCODING 305
SWIDTH 475 0
DWIDTH 11 0
BBX 1 1 0 0
BITMAP
00
ENDCHAR
STARTCHAR IJ
ENCODING 306
SWIDTH 475 0
DWIDTH 11 0
BBX 1 1 0 0
BITMAP
00
ENDCHAR
STARTCHAR ij
ENCODING 307
SWIDTH 475 0
DWIDTH 11 0
BBX 1 1 0 0
BITMAP
00
ENDCHAR
STARTCHAR Jcircumflex
ENCODING 308
SWIDTH 475 0
DWIDTH 11 0
BBX 1 1 0 0
BITMAP
00
ENDCHAR
STARTCHAR jcircumflex
ENCODING 309
SWIDTH 475 0
DWIDTH 11 0
BBX 1 1 0 0
BITMAP
00
ENDCHAR
STARTCHAR Kcommaaccent
ENCODING 310
SWIDTH 475 0
DWIDTH 11 0
BBX 1 1 0 0
BITMAP
00
ENDCHAR
STARTCHAR kcommaaccent
ENCODING 311
SWIDTH 475 0
DWIDTH 11 0
BBX 1 1 0 0
BITMAP
00
ENDCHAR
STARTCHAR kgreenlandic
ENCODING 312
SWIDTH 475 0
DWIDTH 11 0
BBX 1 1 0 0
BITMAP
00
ENDCHAR
STARTCHAR Lacute
ENCODING 313
SWIDTH 475 0
DWIDTH 11 0
BBX 1 1 0 0
BITMAP
00
ENDCHAR
STARTCHAR lacute
ENCODING 314
SWIDTH 475 0
DWIDTH 11 0
BBX 1 1 0 0
BITMAP
00
ENDCHAR
STARTCHAR Lcommaaccent
ENCODING 315
SWIDTH 475 0
DWIDTH 11 0
BBX 1 1 0 0
BITMAP
00
ENDCHAR
STARTCHAR lcommaaccent
ENCODING 316
SWIDTH 475 0
DWIDTH 11 0
BBX 1 1 0 0
BITMAP
00
ENDCHAR
STARTCHAR Lcaron
ENCODING 317
SWIDTH 475 0
DWIDTH 11 0
BBX 1 1 0 0
BITMAP
00
ENDCHAR
STARTCHAR lcaron
ENCODING 318
SWIDTH 475 0
DWIDTH 11 0
BBX 1 1 0 0
BITMAP
00
ENDCHAR
STARTCHAR Ldot
ENCODING 319
SWIDTH 475 0
DWIDTH 11 0
BBX 1 1 0 0
BITMAP
00
ENDCHAR
STARTCHAR ldot
ENCODING 320
SWIDTH 475 0
DWIDTH 11 0
BBX 1 1 0 0
BITMAP
00
ENDCHAR
STARTCHAR Lslash
ENCODING 321
SWIDTH 475 0
DWIDTH 11 0
BBX 1 1 0 0
BITMAP
00
ENDCHAR
STARTCHAR lslash
ENCODING 322
SWIDTH 475 0
DWIDTH 11 0
BBX 1 1 0 0
BITMAP
00
ENDCHAR
STARTCHAR Nacute
ENCODING 323
SWIDTH 475 0
DWIDTH 11 0
BBX 1 1 0 0
BITMAP
00
ENDCHAR
STARTCHAR nacute
ENCODING 324
SWIDTH 475 0
DWIDTH 11 0
BBX 1 1 0 0
BITMAP
00
ENDCHAR
STARTCHAR Ncommaaccent
ENCODING 325
SWIDTH 475 0
DWIDTH 11 0
BBX 1 1 0 0
BITMAP
00
ENDCHAR
STARTCHAR ncommaaccent
ENCODING 326
SWIDTH 475 0
DWIDTH 11 0
BBX 1 1 0 0
BITMAP
00
ENDCHAR
STARTCHAR Ncaron
ENCODING 327
SWIDTH 475 0
DWIDTH 11 0
BBX 1 1 0 0
BITMAP
00
ENDCHAR
STARTCHAR ncaron
ENCODING 328
SWIDTH 475 0
DWIDTH 11 0
BBX 1 1 0 0
BITMAP
00
ENDCHAR
STARTCHAR napostrophe
ENCODING 329
SWIDTH 475 0
DWIDTH 11 0
BBX 1 1 0 0
BITMAP
00
ENDCHAR
STARTCHAR Eng
ENCODING 330
SWIDTH 475 0
DWIDTH 11 0
BBX 1 1 0 0
BITMAP
00
ENDCHAR
STARTCHAR eng
ENCODING 331
SWIDTH 475 0
DWIDTH 11 0
BBX 1 1 0 0
BITMAP
00
ENDCHAR
STARTCHAR Omacron
ENCODING 332
SWIDTH 475 0
DWIDTH 11 0
BBX 1 1 0 0
BITMAP
00
ENDCHAR
STARTCHAR omacron
ENCODING 333
SWIDTH 475 0
DWIDTH 11 0
BBX 1 1 0 0
BITMAP
00
ENDCHAR
STARTCHAR Obreve
ENCODING 334
SWIDTH 475 0
DWIDTH 11 0
BBX 1 1 0 0
BITMAP
00
ENDCHAR
STARTCHAR obreve
ENCODING 335
SWIDTH 475 0
DWIDTH 11 0
BBX 1 1 0 0
BITMAP
00
ENDCHAR
STARTCHAR Ohungarumlaut
ENCODING 336
SWIDTH 475 0
DWIDTH 11 0
BBX 1 1 0 0
BITMAP
00
ENDCHAR
STARTCHAR ohungarumlaut
ENCODING 337
SWIDTH 475 0
DWIDTH 11 0
BBX 1 1 0 0
BITMAP
00
ENDCHAR
STARTCHAR OE
ENCODING 338
SWIDTH 475 0
DWIDTH 11 0
BBX 1 1 0 0
BITMAP
00
ENDCHAR
STARTCHAR oe
ENCODING 339
SWIDTH 475 0
DWIDTH 11 0
BBX 1 1 0 0
BITMAP
00
ENDCHAR
STARTCHAR Racute
ENCODING 340
SWIDTH 475 0
DWIDTH 11 0
BBX 1 1 0 0
BITMAP
00
ENDCHAR
STARTCHAR racute
ENCODING 341
SWIDTH 475 0
DWIDTH 11 0
BBX 1 1 0 0
BITMAP
00
ENDCHAR
STARTCHAR Rcommaaccent
ENCODING 342
SWIDTH 475 0
DWIDTH 11 0
BBX 1 1 0 0
BITMAP
00
ENDCHAR
STARTCHAR rcommaaccent
ENCODING 343
SWIDTH 475 0
DWIDTH 11 0
BBX 1 1 0 0
BITMAP
00
ENDCHAR
STARTCHAR Rcaron
ENCODING 344
SWIDTH 475 0
DWIDTH 11 0
BBX 1 1 0 0
BITMAP
00
ENDCHAR
STARTCHAR rcaron
ENCODING 345
SWIDTH 475 0
DWIDTH 11 0
BBX 1 1 0 0
BITMAP
00
ENDCHAR
STARTCHAR Sacute
ENCODING 346
SWIDTH 475 0
DWIDTH 11 0
BBX 1 1 0 0
BITMAP
00
ENDCHAR
STARTCHAR sacute
ENCODING 347
SWIDTH 475 0
DWIDTH 11 0
BBX 1 1 0 0
BITMAP
00
ENDCHAR
STARTCHAR Scircumflex
ENCODING 348
SWIDTH 475 0
DWIDTH 11 0
BBX 1 1 0 0
BITMAP
00
ENDCHAR
STARTCHAR scircumflex
ENCODING 349
SWIDTH 475 0
DWIDTH 11 0
BBX 1 1 0 0
BITMAP
00
ENDCHAR
STARTCHAR Scedilla
ENCODING 350
SWIDTH 475 0
DWIDTH 11 0
BBX 1 1 0 0
BITMAP
00
ENDCHAR
STARTCHAR scedilla
ENCODING 351
SWIDTH 475 0
DWIDTH 11 0
BBX 1 1 0 0
BITMAP
00
ENDCHAR
STARTCHAR Scaron
ENCODING 352
SWIDTH 475 0
DWIDTH 11 0
BBX 1 1 0 0
BITMAP
00
ENDCHAR
STARTCHAR scaron
ENCODING 353
SWIDTH 475 0
DWIDTH 11 0
BBX 1 1 0 0
BITMAP
00
ENDCHAR
STARTCHAR Tcommaaccent
ENCODING 354
SWIDTH 475 0
DWIDTH 11 0
BBX 1 1 0 0
BITMAP
00
ENDCHAR
STARTCHAR tcommaaccent
ENCODING 355
SWIDTH 475 0
DWIDTH 11 0
BBX 1 1 0 0
BITMAP
00
ENDCHAR
STARTCHAR Tcaron
ENCODING 356
SWIDTH 475 0
DWIDTH 11 0
BBX 1 1 0 0
BITMAP
00
ENDCHAR
STARTCHAR tcaron
ENCODING 357
SWIDTH 475 0
DWIDTH 11 0
BBX 1 1 0 0
BITMAP
00
ENDCHAR
STARTCHAR Tbar
ENCODING 358
SWIDTH 475 0
DWIDTH 11 0
BBX 1 1 0 0
BITMAP
00
ENDCHAR
STARTCHAR tbar
ENCODING 359
SWIDTH 475 0
DWIDTH 11 0
BBX 1 1 0 0
BITMAP
00
ENDCHAR
STARTCHAR Utilde
ENCODING 360
SWIDTH 475 0
DWIDTH 11 0
BBX 1 1 0 0
BITMAP
00
ENDCHAR
STARTCHAR utilde
ENCODING 361
SWIDTH 475 0
DWIDTH 11 0
BBX 1 1 0 0
BITMAP
00
ENDCHAR
STARTCHAR Umacron
ENCODING 362
SWIDTH 475 0
DWIDTH 11 0
BBX 1 1 0 0
BITMAP
00
ENDCHAR
STARTCHAR umacron
ENCODING 363
SWIDTH 475 0
DWIDTH 11 0
BBX 1 1 0 0
BITMAP
00
ENDCHAR
STARTCHAR Ubreve
ENCODING 364
SWIDTH 475 0
DWIDTH 11 0
BBX 1 1 0 0
BITMAP
00
ENDCHAR
STARTCHAR ubreve
ENCODING 365
SWIDTH 475 0
DWIDTH 11 0
BBX 1 1 0 0
BITMAP
00
ENDCHAR
STARTCHAR Uring
ENCODING 366
SWIDTH 475 0
DWIDTH 11 0
BBX 1 1 0 0
BITMAP
00
ENDCHAR
STARTCHAR uring
ENCODING 367
SWIDTH 475 0
DWIDTH 11 0
BBX 1 1 0 0
BITMAP
00
ENDCHAR
STARTCHAR Uhungarumlaut
ENCODING 368
SWIDTH 475 0
DWIDTH 11 0
BBX 1 1 0 0
BITMAP
00
ENDCHAR
STARTCHAR uhungarumlaut
ENCODING 369
SWIDTH 475 0
DWIDTH 11 0
BBX 1 1 0 0
BITMAP
00
ENDCHAR
STARTCHAR Uogonek
ENCODING 370
SWIDTH 475 0
DWIDTH 11 0
BBX 1 1 0 0
BITMAP
00
ENDCHAR
STARTCHAR uogonek
ENCODING 371
SWIDTH 475 0
DWIDTH 11 0
BBX 1 1 0 0
BITMAP
00
ENDCHAR
STARTCHAR Wcircumflex
ENCODING 372
SWIDTH 475 0
DWIDTH 11 0
BBX 1 1 0 0
BITMAP
00
ENDCHAR
STARTCHAR wcircumflex
ENCODING 373
SWIDTH 475 0
DWIDTH 11 0
BBX 1 1 0 0
BITMAP
00
ENDCHAR
STARTCHAR Ycircumflex
ENCODING 374
SWIDTH 475 0
DWIDTH 11 0
BBX 1 1 0 0
BITMAP
00
ENDCHAR
STARTCHAR ycircumflex
ENCODING 375
SWIDTH 475 0
DWIDTH 11 0
BBX 1 1 0 0
BITMAP
00
ENDCHAR
STARTCHAR Ydieresis
ENCODING 376
SWIDTH 475 0
DWIDTH 11 0
BBX 1 1 0 0
BITMAP
00
ENDCHAR
STARTCHAR Zacute
ENCODING 377
SWIDTH 475 0
DWIDTH 11 0
BBX 1 1 0 0
BITMAP
00
ENDCHAR
STARTCHAR zacute
ENCODING 378
SWIDTH 475 0
DWIDTH 11 0
BBX 1 1 0 0
BITMAP
00
ENDCHAR
STARTCHAR Zdotaccent
ENCODING 379
SWIDTH 475 0
DWIDTH 11 0
BBX 1 1 0 0
BITMAP
00
ENDCHAR
STARTCHAR zdotaccent
ENCODING 380
SWIDTH 475 0
DWIDTH 11 0
BBX 1 1 0 0
BITMAP
00
ENDCHAR
STARTCHAR Zcaron
ENCODING 381
SWIDTH 475 0
DWIDTH 11 0
BBX 1 1 0 0
BITMAP
00
ENDCHAR
STARTCHAR zcaron
ENCODING 382
SWIDTH 475 0
DWIDTH 11 0
BBX 1 1 0 0
BITMAP
00
ENDCHAR
STARTCHAR longs
ENCODING 383
SWIDTH 475 0
DWIDTH 11 0
BBX 1 1 0 0
BITMAP
00
ENDCHAR
STARTCHAR florin
ENCODING 402
SWIDTH 475 0
DWIDTH 11 0
BBX 1 1 0 0
BITMAP
00
ENDCHAR
STARTCHAR Aringacute
ENCODING 506
SWIDTH 475 0
DWIDTH 11 0
BBX 1 1 0 0
BITMAP
00
ENDCHAR
STARTCHAR aringacute
ENCODING 507
SWIDTH 475 0
DWIDTH 11 0
BBX 1 1 0 0
BITMAP
00
ENDCHAR
STARTCHAR AEacute
ENCODING 508
SWIDTH 475 0
DWIDTH 11 0
BBX 1 1 0 0
BITMAP
00
ENDCHAR
STARTCHAR aeacute
ENCODING 509
SWIDTH 475 0
DWIDTH 11 0
BBX 1 1 0 0
BITMAP
00
ENDCHAR
STARTCHAR Oslashacute
ENCODING 510
SWIDTH 475 0
DWIDTH 11 0
BBX 1 1 0 0
BITMAP
00
ENDCHAR
STARTCHAR oslashacute
ENCODING 511
SWIDTH 475 0
DWIDTH 11 0
BBX 1 1 0 0
BITMAP
00
ENDCHAR
STARTCHAR circumflex
ENCODING 710
SWIDTH 475 0
DWIDTH 11 0
BBX 1 1 0 0
BITMAP
00
ENDCHAR
STARTCHAR caron
ENCODING 711
SWIDTH 475 0
DWIDTH 11 0
BBX 1 1 0 0
BITMAP
00
ENDCHAR
STARTCHAR uni02C9
ENCODING 713
SWIDTH 475 0
DWIDTH 11 0
BBX 1 1 0 0
BITMAP
00
ENDCHAR
STARTCHAR breve
ENCODING 728
SWIDTH 475 0
DWIDTH 11 0
BBX 1 1 0 0
BITMAP
00
ENDCHAR
STARTCHAR dotaccent
ENCODING 729
SWIDTH 475 0
DWIDTH 11 0
BBX 1 1 0 0
BITMAP
00
ENDCHAR
STARTCHAR ring
ENCODING 730
SWIDTH 475 0
DWIDTH 11 0
BBX 1 1 0 0
BITMAP
00
ENDCHAR
STARTCHAR ogonek
ENCODING 731
SWIDTH 475 0
DWIDTH 11 0
BBX 1 1 0 0
BITMAP
00
ENDCHAR
STARTCHAR tilde
ENCODING 732
SWIDTH 475 0
DWIDTH 11 0
BBX 1 1 0 0
BITMAP
00
ENDCHAR
STARTCHAR hungarumlaut
ENCODING 733
SWIDTH 475 0
DWIDTH 11 0
BBX 1 1 0 0
BITMAP
00
ENDCHAR
STARTCHAR semicolon.dup3
ENCODING 894
SWIDTH 475 0
DWIDTH 11 0
BBX 1 1 0 0
BITMAP
00
ENDCHAR
STARTCHAR tonos
ENCODING 900
SWIDTH 475 0
DWIDTH 11 0
BBX 1 1 0 0
BITMAP
00
ENDCHAR
STARTCHAR dieresistonos
ENCODING 901
SWIDTH 475 0
DWIDTH 11 0
BBX 1 1 0 0
BITMAP
00
ENDCHAR
STARTCHAR Alphatonos
ENCODING 902
SWIDTH 475 0
DWIDTH 11 0
BBX 1 1 0 0
BITMAP
00
ENDCHAR
STARTCHAR anoteleia
ENCODING 903
SWIDTH 475 0
DWIDTH 11 0
BBX 1 1 0 0
BITMAP
00
ENDCHAR
STARTCHAR Epsilontonos
ENCODING 904
SWIDTH 475 0
DWIDTH 11 0
BBX 1 1 0 0
BITMAP
00
ENDCHAR
STARTCHAR Etatonos
ENCODING 905
SWIDTH 475 0
DWIDTH 11 0
BBX 1 1 0 0
BITMAP
00
ENDCHAR
STARTCHAR Iotatonos
ENCODING 906
SWIDTH 475 0
DWIDTH 11 0
BBX 1 1 0 0
BITMAP
00
ENDCHAR
STARTCHAR Omicrontonos
ENCODING 908
SWIDTH 475 0
DWIDTH 11 0
BBX 1 1 0 0
BITMAP
00
ENDCHAR
STARTCHAR Upsilontonos
ENCODING 910
SWIDTH 475 0
DWIDTH 11 0
BBX 1 1 0 0
BITMAP
00
ENDCHAR
STARTCHAR Omegatonos
ENCODING 911
SWIDTH 475 0
DWIDTH 11 0
BBX 1 1 0 0
BITMAP
00
ENDCHAR
STARTCHAR iotadieresistonos
ENCODING 912
SWIDTH 475 0
DWIDTH 11 0
BBX 1 1 0 0
BITMAP
00
ENDCHAR
STARTCHAR Alpha
ENCODING 913
SWIDTH 475 0
DWIDTH 11 0
BBX 1 1 0 0
BITMAP
00
ENDCHAR
STARTCHAR Beta
ENCODING 914
SWIDTH 475 0
DWIDTH 11 0
BBX 1 1 0 0
BITMAP
00
ENDCHAR
STARTCHAR Gamma
ENCODING 915
SWIDTH 475 0
DWIDTH 11 0
BBX 1 1 0 0
BITMAP
00
ENDCHAR
STARTCHAR uni0394
ENCODING 916
SWIDTH 475 0
DWIDTH 11 0
BBX 1 1 0 0
BITMAP
00
ENDCHAR
STARTCHAR Epsilon
ENCODING 917
SWIDTH 475 0
DWIDTH 11 0
BBX 1 1 0 0
BITMAP
00
ENDCHAR
STARTCHAR Zeta
ENCODING 918
SWIDTH 475 0
DWIDTH 11 0
BBX 1 1 0 0
BITMAP
00
ENDCHAR
STARTCHAR Eta
ENCODING 919
SWIDTH 475 0
DWIDTH 11 0
BBX 1 1 0 0
BITMAP
00
ENDCHAR
STARTCHAR Theta
ENCODING 920
SWIDTH 475 0
DWIDTH 11 0
BBX 1 1 0 0
BITMAP
00
ENDCHAR
STARTCHAR Iota
ENCODING 921
SWIDTH 475 0
DWIDTH 11 0
BBX 1 1 0 0
BITMAP
00
ENDCHAR
STARTCHAR Kappa
ENCODING 922
SWIDTH 475 0
DWIDTH 11 0
BBX 1 1 0 0
BITMAP
00
ENDCHAR
STARTCHAR Lambda
ENCODING 923
SWIDTH 475 0
DWIDTH 11 0
BBX 1 1 0 0
BITMAP
00
ENDCHAR
STARTCHAR Mu
ENCODING 924
SWIDTH 475 0
DWIDTH 11 0
BBX 1 1 0 0
BITMAP
00
ENDCHAR
STARTCHAR Nu
ENCODING 925
SWIDTH 475 0
DWIDTH 11 0
BBX 1 1 0 0
BITMAP
00
ENDCHAR
STARTCHAR Xi
ENCODING 926
SWIDTH 475 0
DWIDTH 11 0
BBX 1 1 0 0
BITMAP
00
ENDCHAR
STARTCHAR Omicron
ENCODING 927
SWIDTH 475 0
DWIDTH 11 0
BBX 1 1 0 0
BITMAP
00
ENDCHAR
STARTCHAR Pi
ENCODING 928
SWIDTH 475 0
DWIDTH 11 0
BBX 1 1 0 0
BITMAP
00
ENDCHAR
STARTCHAR Rho
ENCODING 929
SWIDTH 475 0
DWIDTH 11 0
BBX 1 1 0 0
BITMAP
00
ENDCHAR
STARTCHAR Sigma
ENCODING 931
SWIDTH 475 0
DWIDTH 11 0
BBX 1 1 0 0
BITMAP
00
ENDCHAR
STARTCHAR Tau
ENCODING 932
SWIDTH 475 0
DWIDTH 11 0
BBX 1 1 0 0
BITMAP
00
ENDCHAR
STARTCHAR Upsilon
ENCODING 933
SWIDTH 475 0
DWIDTH 11 0
BBX 1 1 0 0
BITMAP
00
ENDCHAR
STARTCHAR Phi
ENCODING 934
SWIDTH 475 0
DWIDTH 11 0
BBX 1 1 0 0
BITMAP
00
ENDCHAR
STARTCHAR Chi
ENCODING 935
SWIDTH 475 0
DWIDTH 11 0
BBX 1 1 0 0
BITMAP
00
ENDCHAR
STARTCHAR Psi
ENCODING 936
SWIDTH 475 0
DWIDTH 11 0
BBX 1 1 0 0
BITMAP
00
ENDCHAR
STARTCHAR uni03A9
ENCODING 937
SWIDTH 475 0
DWIDTH 11 0
BBX 1 1 0 0
BITMAP
00
ENDCHAR
STARTCHAR Iotadieresis
ENCODING 938
SWIDTH 475 0
DWIDTH 11 0
BBX 1 1 0 0
BITMAP
00
ENDCHAR
STARTCHAR Upsilondieresis
ENCODING 939
SWIDTH 475 0
DWIDTH 11 0
BBX 1 1 0 0
BITMAP
00
ENDCHAR
STARTCHAR alphatonos
ENCODING 940
SWIDTH 475 0
DWIDTH 11 0
BBX 1 1 0 0
BITMAP
00
ENDCHAR
STARTCHAR epsilontonos
ENCODING 941
SWIDTH 475 0
DWIDTH 11 0
BBX 1 1 0 0
BITMAP
00
ENDCHAR
STARTCHAR etatonos
ENCODING 942
SWIDTH 475 0
DWIDTH 11 0
BBX 1 1 0 0
BITMAP
00
ENDCHAR
STARTCHAR iotatonos
ENCODING 943
SWIDTH 475 0
DWIDTH 11 0
BBX 1 1 0 0
BITMAP
00
ENDCHAR
STARTCHAR upsilondieresistonos
ENCODING 944
SWIDTH 475 0
DWIDTH 11 0
BBX 1 1 0 0
BITMAP
00
ENDCHAR
STARTCHAR alpha
ENCODING 945
SWIDTH 475 0
DWIDTH 11 0
BBX 1 1 0 0
BITMAP
00
ENDCHAR
STARTCHAR beta
ENCODING 946
SWIDTH 475 0
DWIDTH 11 0
BBX 1 1 0 0
BITMAP
00
ENDCHAR
STARTCHAR gamma
ENCODING 947
SWIDTH 475 0
DWIDTH 11 0
BBX 1 1 0 0
BITMAP
00
ENDCHAR
STARTCHAR delta
ENCODING 948
SWIDTH 475 0
DWIDTH 11 0
BBX 1 1 0 0
BITMAP
00
ENDCHAR
STARTCHAR epsilon
ENCODING 949
SWIDTH 475 0
DWIDTH 11 0
BBX 1 1 0 0
BITMAP
00
ENDCHAR
STARTCHAR zeta
ENCODING 950
SWIDTH 475 0
DWIDTH 11 0
BBX 1 1 0 0
BITMAP
00
ENDCHAR
STARTCHAR eta
ENCODING 951
SWIDTH 475 0
DWIDTH 11 0
BBX 1 1 0 0
BITMAP
00
ENDCHAR
STARTCHAR theta
ENCODING 952
SWIDTH 475 0
DWIDTH 11 0
BBX 1 1 0 0
BITMAP
00
ENDCHAR
STARTCHAR iota
ENCODING 953
SWIDTH 475 0
DWIDTH 11 0
BBX 1 1 0 0
BITMAP
00
ENDCHAR
STARTCHAR kappa
ENCODING 954
SWIDTH 475 0
DWIDTH 11 0
BBX 1 1 0 0
BITMAP
00
ENDCHAR
STARTCHAR lambda
ENCODING 955
SWIDTH 475 0
DWIDTH 11 0
BBX 1 1 0 0
BITMAP
00
ENDCHAR
STARTCHAR uni03BC
ENCODING 956
SWIDTH 475 0
DWIDTH 11 0
BBX 1 1 0 0
BITMAP
00
ENDCHAR
STARTCHAR nu
ENCODING 957
SWIDTH 475 0
DWIDTH 11 0
BBX 1 1 0 0
BITMAP
00
ENDCHAR
STARTCHAR xi
ENCODING 958
SWIDTH 475 0
DWIDTH 11 0
BBX 1 1 0 0
BITMAP
00
ENDCHAR
STARTCHAR omicron
ENCODING 959
SWIDTH 475 0
DWIDTH 11 0
BBX 1 1 0 0
BITMAP
00
ENDCHAR
STARTCHAR pi
ENCODING 960
SWIDTH 475 0
DWIDTH 11 0
BBX 1 1 0 0
BITMAP
00
ENDCHAR
STARTCHAR rho
ENCODING 961
SWIDTH 475 0
DWIDTH 11 0
BBX 1 1 0 0
BITMAP
00
ENDCHAR
STARTCHAR sigma1
ENCODING 962
SWIDTH 475 0
DWIDTH 11 0
BBX 1 1 0 0
BITMAP
00
ENDCHAR
STARTCHAR sigma
ENCODING 963
SWIDTH 475 0
DWIDTH 11 0
BBX 1 1 0 0
BITMAP
00
ENDCHAR
STARTCHAR tau
ENCODING 964
SWIDTH 475 0
DWIDTH 11 0
BBX 1 1 0 0
BITMAP
00
ENDCHAR
STARTCHAR upsilon
ENCODING 965
SWIDTH 475 0
DWIDTH 11 0
BBX 1 1 0 0
BITMAP
00
ENDCHAR
STARTCHAR phi
ENCODING 966
SWIDTH 475 0
DWIDTH 11 0
BBX 1 1 0 0
BITMAP
00
ENDCHAR
STARTCHAR chi
ENCODING 967
SWIDTH 475 0
DWIDTH 11 0
BBX 1 1 0 0
BITMAP
00
ENDCHAR
STARTCHAR psi
ENCODING 968
SWIDTH 475 0
DWIDTH 11 0
BBX 1 1 0 0
BITMAP
00
ENDCHAR
STARTCHAR omega
ENCODING 969
SWIDTH 475 0
DWIDTH 11 0
BBX 1 1 0 0
BITMAP
00
ENDCHAR
STARTCHAR iotadieresis
ENCODING 970
SWIDTH 475 0
DWIDTH 11 0
BBX 1 1 0 0
BITMAP
00
ENDCHAR
STARTCHAR upsilondieresis
ENCODING 971
SWIDTH 475 0
DWIDTH 11 0
BBX 1 1 0 0
BITMAP
00
ENDCHAR
STARTCHAR omicrontonos
ENCODING 972
SWIDTH 475 0
DWIDTH 11 0
BBX 1 1 0 0
BITMAP
00
ENDCHAR
STARTCHAR upsilontonos
ENCODING 973
SWIDTH 475 0
DWIDTH 11 0
BBX 1 1 0 0
BITMAP
00
ENDCHAR
STARTCHAR omegatonos
ENCODING 974
SWIDTH 475 0
DWIDTH 11 0
BBX 1 1 0 0
BITMAP
00
ENDCHAR
STARTCHAR afii10023
ENCODING 1025
SWIDTH 475 0
DWIDTH 11 0
BBX 1 1 0 0
BITMAP
00
ENDCHAR
STARTCHAR afii10051
ENCODING 1026
SWIDTH 475 0
DWIDTH 11 0
BBX 1 1 0 0
BITMAP
00
ENDCHAR
STARTCHAR afii10052
ENCODING 1027
SWIDTH 475 0
DWIDTH 11 0
BBX 1 1 0 0
BITMAP
00
ENDCHAR
STARTCHAR afii10053
ENCODING 1028
SWIDTH 475 0
DWIDTH 11 0
BBX 1 1 0 0
BITMAP
00
ENDCHAR
STARTCHAR afii10054
ENCODING 1029
SWIDTH 475 0
DWIDTH 11 0
BBX 1 1 0 0
BITMAP
00
ENDCHAR
STARTCHAR afii10055
ENCODING 1030
SWIDTH 475 0
DWIDTH 11 0
BBX 1 1 0 0
BITMAP
00
ENDCHAR
STARTCHAR afii10056
ENCODING 1031
SWIDTH 475 0
DWIDTH 11 0
BBX 1 1 0 0
BITMAP
00
ENDCHAR
STARTCHAR afii10057
ENCODING 1032
SWIDTH 475 0
DWIDTH 11 0
BBX 1 1 0 0
BITMAP
00
ENDCHAR
STARTCHAR afii10058
ENCODING 1033
SWIDTH 475 0
DWIDTH 11 0
BBX 1 1 0 0
BITMAP
00
ENDCHAR
STARTCHAR afii10059
ENCODING 1034
SWIDTH 475 0
DWIDTH 11 0
BBX 1 1 0 0
BITMAP
00
ENDCHAR
STARTCHAR afii10060
ENCODING 1035
SWIDTH 475 0
DWIDTH 11 0
BBX 1 1 0 0
BITMAP
00
ENDCHAR
STARTCHAR afii10061
ENCODING 1036
SWIDTH 475 0
DWIDTH 11 0
BBX 1 1 0 0
BITMAP
00
ENDCHAR
STARTCHAR afii10062
ENCODING 1038
SWIDTH 475 0
DWIDTH 11 0
BBX 1 1 0 0
BITMAP
00
ENDCHAR
STARTCHAR afii10145
ENCODING 1039
SWIDTH 475 0
DWIDTH 11 0
BBX 1 1 0 0
BITMAP
00
ENDCHAR
STARTCHAR afii10017
ENCODING 1040
SWIDTH 475 0
DWIDTH 11 0
BBX 1 1 0 0
BITMAP
00
ENDCHAR
STARTCHAR afii10018
ENCODING 1041
SWIDTH 475 0
DWIDTH 11 0
BBX 1 1 0 0
BITMAP
00
ENDCHAR
STARTCHAR afii10019
ENCODING 1042
SWIDTH 475 0
DWIDTH 11 0
BBX 1 1 0 0
BITMAP
00
ENDCHAR
STARTCHAR afii10020
ENCODING 1043
SWIDTH 475 0
DWIDTH 11 0
BBX 1 1 0 0
BITMAP
00
ENDCHAR
STARTCHAR afii10021
ENCODING 1044
SWIDTH 475 0
DWIDTH 11 0
BBX 1 1 0 0
BITMAP
00
ENDCHAR
STARTCHAR afii10022
ENCODING 1045
SWIDTH 475 0
DWIDTH 11 0
BBX 1 1 0 0
BITMAP
00
ENDCHAR
STARTCHAR afii10024
ENCODING 1046
SWIDTH 475 0
DWIDTH 11 0
BBX 1 1 0 0
BITMAP
00
ENDCHAR
STARTCHAR afii10025
ENCODING 1047
SWIDTH 475 0
DWIDTH 11 0
BBX 1 1 0 0
BITMAP
00
ENDCHAR
STARTCHAR afii10026
ENCODING 1048
SWIDTH 475 0
DWIDTH 11 0
BBX 1 1 0 0
BITMAP
00
ENDCHAR
STARTCHAR afii10027
ENCODING 1049
SWIDTH 475 0
DWIDTH 11 0
BBX 1 1 0 0
BITMAP
00
ENDCHAR
STARTCHAR afii10028
ENCODING 1050
SWIDTH 475 0
DWIDTH 11 0
BBX 1 1 0 0
BITMAP
00
ENDCHAR
STARTCHAR afii10029
ENCODING 1051
SWIDTH 475 0
DWIDTH 11 0
BBX 1 1 0 0
BITMAP
00
ENDCHAR
STARTCHAR afii10030
ENCODING 1052
SWIDTH 475 0
DWIDTH 11 0
BBX 1 1 0 0
BITMAP
00
ENDCHAR
STARTCHAR afii10031
ENCODING 1053
SWIDTH 475 0
DWIDTH 11 0
BBX 1 1 0 0
BITMAP
00
ENDCHAR
STARTCHAR afii10032
ENCODING 1054
SWIDTH 475 0
DWIDTH 11 0
BBX 1 1 0 0
BITMAP
00
ENDCHAR
STARTCHAR afii10033
ENCODING 1055
SWIDTH 475 0
DWIDTH 11 0
BBX 1 1 0 0
BITMAP
00
ENDCHAR
STARTCHAR afii10034
ENCODING 1056
SWIDTH 475 0
DWIDTH 11 0
BBX 1 1 0 0
BITMAP
00
ENDCHAR
STARTCHAR afii10035
ENCODING 1057
SWIDTH 475 0
DWIDTH 11 0
BBX 1 1 0 0
BITMAP
00
ENDCHAR
STARTCHAR afii10036
ENCODING 1058
SWIDTH 475 0
DWIDTH 11 0
BBX 1 1 0 0
BITMAP
00
ENDCHAR
STARTCHAR afii10037
ENCODING 1059
SWIDTH 475 0
DWIDTH 11 0
BBX 1 1 0 0
BITMAP
00
ENDCHAR
STARTCHAR afii10038
ENCODING 1060
SWIDTH 475 0
DWIDTH 11 0
BBX 1 1 0 0
BITMAP
00
ENDCHAR
STARTCHAR afii10039
ENCODING 1061
SWIDTH 475 0
DWIDTH 11 0
BBX 1 1 0 0
BITMAP
00
ENDCHAR
STARTCHAR afii10040
ENCODING 1062
SWIDTH 475 0
DWIDTH 11 0
BBX 1 1 0 0
BITMAP
00
ENDCHAR
STARTCHAR afii10041
ENCODING 1063
SWIDTH 475 0
DWIDTH 11 0
BBX 1 1 0 0
BITMAP
00
ENDCHAR
STARTCHAR afii10042
ENCODING 1064
SWIDTH 475 0
DWIDTH 11 0
BBX 1 1 0 0
BITMAP
00
ENDCHAR
STARTCHAR afii10043
ENCODING 1065
SWIDTH 475 0
DWIDTH 11 0
BBX 1 1 0 0
BITMAP
00
ENDCHAR
STARTCHAR afii10044
ENCODING 1066
SWIDTH 475 0
DWIDTH 11 0
BBX 1 1 0 0
BITMAP
00
ENDCHAR
STARTCHAR afii10045
ENCODING 1067
SWIDTH 475 0
DWIDTH 11 0
BBX 1 1 0 0
BITMAP
00
ENDCHAR
STARTCHAR afii10046
ENCODING 1068
SWIDTH 475 0
DWIDTH 11 0
BBX 1 1 0 0
BITMAP
00
ENDCHAR
STARTCHAR afii10047
ENCODING 1069
SWIDTH 475 0
DWIDTH 11 0
BBX 1 1 0 0
BITMAP
00
ENDCHAR
STARTCHAR afii10048
ENCODING 1070
SWIDTH 475 0
DWIDTH 11 0
BBX 1 1 0 0
BITMAP
00
ENDCHAR
STARTCHAR afii10049
ENCODING 1071
SWIDTH 475 0
DWIDTH 11 0
BBX 1 1 0 0
BITMAP
00
ENDCHAR
STARTCHAR afii10065
ENCODING 1072
SWIDTH 475 0
DWIDTH 11 0
BBX 1 1 0 0
BITMAP
00
ENDCHAR
STARTCHAR afii10066
ENCODING 1073
SWIDTH 475 0
DWIDTH 11 0
BBX 1 1 0 0
BITMAP
00
ENDCHAR
STARTCHAR afii10067
ENCODING 1074
SWIDTH 475 0
DWIDTH 11 0
BBX 1 1 0 0
BITMAP
00
ENDCHAR
STARTCHAR afii10068
ENCODING 1075
SWIDTH 475 0
DWIDTH 11 0
BBX 1 1 0 0
BITMAP
00
ENDCHAR
STARTCHAR afii10069
ENCODING 1076
SWIDTH 475 0
DWIDTH 11 0
BBX 1 1 0 0
BITMAP
00
ENDCHAR
STARTCHAR afii10070
ENCODING 1077
SWIDTH 475 0
DWIDTH 11 0
BBX 1 1 0 0
BITMAP
00
ENDCHAR
STARTCHAR afii10072
ENCODING 1078
SWIDTH 475 0
DWIDTH 11 0
BBX 1 1 0 0
BITMAP
00
ENDCHAR
STARTCHAR afii10073
ENCODING 1079
SWIDTH 475 0
DWIDTH 11 0
BBX 1 1 0 0
BITMAP
00
ENDCHAR
STARTCHAR afii10074
ENCODING 1080
SWIDTH 475 0
DWIDTH 11 0
BBX 1 1 0 0
BITMAP
00
ENDCHAR
STARTCHAR afii10075
ENCODING 1081
SWIDTH 475 0
DWIDTH 11 0
BBX 1 1 0 0
BITMAP
00
ENDCHAR
STARTCHAR afii10076
ENCODING 1082
SWIDTH 475 0
DWIDTH 11 0
BBX 1 1 0 0
BITMAP
00
ENDCHAR
STARTCHAR afii10077
ENCODING 1083
SWIDTH 475 0
DWIDTH 11 0
BBX 1 1 0 0
BITMAP
00
ENDCHAR
STARTCHAR afii10078
ENCODING 1084
SWIDTH 475 0
DWIDTH 11 0
BBX 1 1 0 0
BITMAP
00
ENDCHAR
STARTCHAR afii10079
ENCODING 1085
SWIDTH 475 0
DWIDTH 11 0
BBX 1 1 0 0
BITMAP
00
ENDCHAR
STARTCHAR afii10080
ENCODING 1086
SWIDTH 475 0
DWIDTH 11 0
BBX 1 1 0 0
BITMAP
00
ENDCHAR
STARTCHAR afii10081
ENCODING 1087
SWIDTH 475 0
DWIDTH 11 0
BBX 1 1 0 0
BITMAP
00
ENDCHAR
STARTCHAR afii10082
ENCODING 1088
SWIDTH 475 0
DWIDTH 11 0
BBX 1 1 0 0
BITMAP
00
ENDCHAR
STARTCHAR afii10083
ENCODING 1089
SWIDTH 475 0
DWIDTH 11 0
BBX 1 1 0 0
BITMAP
00
ENDCHAR
STARTCHAR afii10084
ENCODING 1090
SWIDTH 475 0
DWIDTH 11 0
BBX 1 1 0 0
BITMAP
00
ENDCHAR
STARTCHAR afii10085
ENCODING 1091
SWIDTH 475 0
DWIDTH 11 0
BBX 1 1 0 0
BITMAP
00
ENDCHAR
STARTCHAR afii10086
ENCODING 1092
SWIDTH 475 0
DWIDTH 11 0
BBX 1 1 0 0
BITMAP
00
ENDCHAR
STARTCHAR afii10087
ENCODING 1093
SWIDTH 475 0
DWIDTH 11 0
BBX 1 1 0 0
BITMAP
00
ENDCHAR
STARTCHAR afii10088
ENCODING 1094
SWIDTH 475 0
DWIDTH 11 0
BBX 1 1 0 0
BITMAP
00
ENDCHAR
STARTCHAR afii10089
ENCODING 1095
SWIDTH 475 0
DWIDTH 11 0
BBX 1 1 0 0
BITMAP
00
ENDCHAR
STARTCHAR afii10090
ENCODING 1096
SWIDTH 475 0
DWIDTH 11 0
BBX 1 1 0 0
BITMAP
00
ENDCHAR
STARTCHAR afii10091
ENCODING 1097
SWIDTH 475 0
DWIDTH 11 0
BBX 1 1 0 0
BITMAP
00
ENDCHAR
STARTCHAR afii10092
ENCODING 1098
SWIDTH 475 0
DWIDTH 11 0
BBX 1 1 0 0
BITMAP
00
ENDCHAR
STARTCHAR afii10093
ENCODING 1099
SWIDTH 475 0
DWIDTH 11 0
BBX 1 1 0 0
BITMAP
00
ENDCHAR
STARTCHAR afii10094
ENCODING 1100
SWIDTH 475 0
DWIDTH 11 0
BBX 1 1 0 0
BITMAP
00
ENDCHAR
STARTCHAR afii10095
ENCODING 1101
SWIDTH 475 0
DWIDTH 11 0
BBX 1 1 0 0
BITMAP
00
ENDCHAR
STARTCHAR afii10096
ENCODING 1102
SWIDTH 475 0
DWIDTH 11 0
BBX 1 1 0 0
BITMAP
00
ENDCHAR
STARTCHAR afii10097
ENCODING 1103
SWIDTH 475 0
DWIDTH 11 0
BBX 1 1 0 0
BITMAP
00
ENDCHAR
STARTCHAR afii10071
ENCODING 1105
SWIDTH 475 0
DWIDTH 11 0
BBX 1 1 0 0
BITMAP
00
ENDCHAR
STARTCHAR afii10099
ENCODING 1106
SWIDTH 475 0
DWIDTH 11 0
BBX 1 1 0 0
BITMAP
00
ENDCHAR
STARTCHAR afii10100
ENCODING 1107
SWIDTH 475 0
DWIDTH 11 0
BBX 1 1 0 0
BITMAP
00
ENDCHAR
STARTCHAR afii10101
ENCODING 1108
SWIDTH 475 0
DWIDTH 11 0
BBX 1 1 0 0
BITMAP
00
ENDCHAR
STARTCHAR afii10102
ENCODING 1109
SWIDTH 475 0
DWIDTH 11 0
BBX 1 1 0 0
BITMAP
00
ENDCHAR
STARTCHAR afii10103
ENCODING 1110
SWIDTH 475 0
DWIDTH 11 0
BBX 1 1 0 0
BITMAP
00
ENDCHAR
STARTCHAR afii10104
ENCODING 1111
SWIDTH 475 0
DWIDTH 11 0
BBX 1 1 0 0
BITMAP
00
ENDCHAR
STARTCHAR afii10105
ENCODING 1112
SWIDTH 475 0
DWIDTH 11 0
BBX 1 1 0 0
BITMAP
00
ENDCHAR
STARTCHAR afii10106
ENCODING 1113
SWIDTH 475 0
DWIDTH 11 0
BBX 1 1 0 0
BITMAP
00
ENDCHAR
STARTCHAR afii10107
ENCODING 1114
SWIDTH 475 0
DWIDTH 11 0
BBX 1 1 0 0
BITMAP
00
ENDCHAR
STARTCHAR afii10108
ENCODING 1115
SWIDTH 475 0
DWIDTH 11 0
BBX 1 1 0 0
BITMAP
00
ENDCHAR
STARTCHAR afii10109
ENCODING 1116
SWIDTH 475 0
DWIDTH 11 0
BBX 1 1 0 0
BITMAP
00
ENDCHAR
STARTCHAR afii10110
ENCODING 1118
SWIDTH 475 0
DWIDTH 11 0
BBX 1 1 0 0
BITMAP
00
ENDCHAR
STARTCHAR afii10193
ENCODING 1119
SWIDTH 475 0
DWIDTH 11 0
BBX 1 1 0 0
BITMAP
00
ENDCHAR
STARTCHAR afii10050
ENCODING 1168
SWIDTH 475 0
DWIDTH 11 0
BBX 1 1 0 0
BITMAP
00
ENDCHAR
STARTCHAR afii10098
ENCODING 1169
SWIDTH 475 0
DWIDTH 11 0
BBX 1 1 0 0
BITMAP
00
ENDCHAR
STARTCHAR Wgrave
ENCODING 7808
SWIDTH 475 0
DWIDTH 11 0
BBX 1 1 0 0
BITMAP
00
ENDCHAR
STARTCHAR wgrave
ENCODING 7809
SWIDTH 475 0
DWIDTH 11 0
BBX 1 1 0 0
BITMAP
00
ENDCHAR
STARTCHAR Wacute
ENCODING 7810
SWIDTH 475 0
DWIDTH 11 0
BBX 1 1 0 0
BITMAP
00
ENDCHAR
STARTCHAR wacute
ENCODING 7811
SWIDTH 475 0
DWIDTH 11 0
BBX 1 1 0 0
BITMAP
00
ENDCHAR
STARTCHAR Wdieresis
ENCODING 7812
SWIDTH 475 0
DWIDTH 11 0
BBX 1 1 0 0
BITMAP
00
ENDCHAR
STARTCHAR wdieresis
ENCODING 7813
SWIDTH 475 0
DWIDTH 11 0
BBX 1 1 0 0
BITMAP
00
ENDCHAR
STARTCHAR Ygrave
ENCODING 7922
SWIDTH 475 0
DWIDTH 11 0
BBX 1 1 0 0
BITMAP
00
ENDCHAR
STARTCHAR ygrave
ENCODING 7923
SWIDTH 475 0
DWIDTH 11 0
BBX 1 1 0 0
BITMAP
00
ENDCHAR
STARTCHAR endash
ENCODING 8211
SWIDTH 475 0
DWIDTH 11 0
BBX 1 1 0 0
BITMAP
00
ENDCHAR
STARTCHAR emdash
ENCODING 8212
SWIDTH 475 0
DWIDTH 11 0
BBX 1 1 0 0
BITMAP
00
ENDCHAR
STARTCHAR afii00208
ENCODING 8213
SWIDTH 475 0
DWIDTH 11 0
BBX 1 1 0 0
BITMAP
00
ENDCHAR
STARTCHAR underscoredbl
ENCODING 8215
SWIDTH 475 0
DWIDTH 11 0
BBX 1 1 0 0
BITMAP
00
ENDCHAR
STARTCHAR quoteleft
ENCODING 8216
SWIDTH 475 0
DWIDTH 11 0
BBX 1 1 0 0
BITMAP
00
ENDCHAR
STARTCHAR quoteright
ENCODING 8217
SWIDTH 475 0
DWIDTH 11 0
BBX 1 1 0 0
BITMAP
00
ENDCHAR
STARTCHAR quotesinglbase
ENCODING 8218
SWIDTH 475 0
DWIDTH 11 0
BBX 1 1 0 0
BITMAP
00
ENDCHAR
STARTCHAR quotereversed
ENCODING 8219
SWIDTH 475 0
DWIDTH 11 0
BBX 1 1 0 0
BITMAP
00
ENDCHAR
STARTCHAR quotedblleft
ENCODING 8220
SWIDTH 475 0
DWIDTH 11 0
BBX 1 1 0 0
BITMAP
00
ENDCHAR
STARTCHAR quotedblright
ENCODING 8221
SWIDTH 475 0
DWIDTH 11 0
BBX 1 1 0 0
BITMAP
00
ENDCHAR
STARTCHAR quotedblbase
ENCODING 8222
SWIDTH 475 0
DWIDTH 11 0
BBX 1 1 0 0
BITMAP
00
ENDCHAR
STARTCHAR dagger
ENCODING 8224
SWIDTH 475 0
DWIDTH 11 0
BBX 1 1 0 0
BITMAP
00
ENDCHAR
STARTCHAR daggerdbl
ENCODING 8225
SWIDTH 475 0
DWIDTH 11 0
BBX 1 1 0 0
BITMAP
00
ENDCHAR
STARTCHAR bullet
ENCODING 8226
SWIDTH 475 0
DWIDTH 11 0
BBX 1 1 0 0
BITMAP
00
ENDCHAR
STARTCHAR ellipsis
ENCODING 8230
SWIDTH 475 0
DWIDTH 11 0
BBX 1 1 0 0
BITMAP
00
ENDCHAR
STARTCHAR perthousand
ENCODING 8240
SWIDTH 475 0
DWIDTH 11 0
BBX 1 1 0 0
BITMAP
00
ENDCHAR
STARTCHAR minute
ENCODING 8242
SWIDTH 475 0
DWIDTH 11 0
BBX 1 1 0 0
BITMAP
00
ENDCHAR
STARTCHAR second
ENCODING 8243
SWIDTH 475 0
DWIDTH 11 0
BBX 1 1 0 0
BITMAP
00
ENDCHAR
STARTCHAR guilsinglleft
ENCODING 8249
SWIDTH 475 0
DWIDTH 11 0
BBX 1 1 0 0
BITMAP
00
ENDCHAR
STARTCHAR guilsinglright
ENCODING 8250
SWIDTH 475 0
DWIDTH 11 0
BBX 1 1 0 0
BITMAP
00
ENDCHAR
STARTCHAR exclamdbl
ENCODING 8252
SWIDTH 475 0
DWIDTH 11 0
BBX 1 1 0 0
BITMAP
00
ENDCHAR
STARTCHAR uni203E
ENCODING 8254
SWIDTH 475 0
DWIDTH 11 0
BBX 1 1 0 0
BITMAP
00
ENDCHAR
STARTCHAR fraction
ENCODING 8260
SWIDTH 475 0
DWIDTH 11 0
BBX 1 1 0 0
BITMAP
00
ENDCHAR
STARTCHAR uni207F
ENCODING 8319
SWIDTH 475 0
DWIDTH 11 0
BBX 1 1 0 0
BITMAP
00
ENDCHAR
STARTCHAR franc
ENCODING 8355
SWIDTH 475 0
DWIDTH 11 0
BBX 1 1 0 0
BITMAP
00
ENDCHAR
STARTCHAR lira
ENCODING 8356
SWIDTH 475 0
DWIDTH 11 0
BBX 1 1 0 0
BITMAP
00
ENDCHAR
STARTCHAR peseta
ENCODING 8359
SWIDTH 475 0
DWIDTH 11 0
BBX 1 1 0 0
BITMAP
00
ENDCHAR
STARTCHAR Euro
ENCODING 8364
SWIDTH 475 0
DWIDTH 11 0
BBX 1 1 0 0
BITMAP
00
ENDCHAR
STARTCHAR afii61248
ENCODING 8453
SWIDTH 475 0
DWIDTH 11 0
BBX 1 1 0 0
BITMAP
00
ENDCHAR
STARTCHAR afii61289
ENCODING 8467
SWIDTH 475 0
DWIDTH 11 0
BBX 1 1 0 0
BITMAP
00
ENDCHAR
STARTCHAR afii61352
ENCODING 8470
SWIDTH 475 0
DWIDTH 11 0
BBX 1 1 0 0
BITMAP
00
ENDCHAR
STARTCHAR trademark
ENCODING 8482
SWIDTH 475 0
DWIDTH 11 0
BBX 1 1 0 0
BITMAP
00
ENDCHAR
STARTCHAR Omega
ENCODING 8486
SWIDTH 475 0
DWIDTH 11 0
BBX 1 1 0 0
BITMAP
00
ENDCHAR
STARTCHAR estimated
ENCODING 8494
SWIDTH 475 0
DWIDTH 11 0
BBX 1 1 0 0
BITMAP
00
ENDCHAR
STARTCHAR oneeighth
ENCODING 8539
SWIDTH 475 0
DWIDTH 11 0
BBX 1 1 0 0
BITMAP
00
ENDCHAR
STARTCHAR threeeighths
ENCODING 8540
SWIDTH 475 0
DWIDTH 11 0
BBX 1 1 0 0
BITMAP
00
ENDCHAR
STARTCHAR fiveeighths
ENCODING 8541
SWIDTH 475 0
DWIDTH 11 0
BBX 1 1 0 0
BITMAP
00
ENDCHAR
STARTCHAR seveneighths
ENCODING 8542
SWIDTH 475 0
DWIDTH 11 0
BBX 1 1 0 0
BITMAP
00
ENDCHAR
STARTCHAR arrowleft
ENCODING 8592
SWIDTH 475 0
DWIDTH 11 0
BBX 1 1 0 0
BITMAP
00
ENDCHAR
STARTCHAR arrowup
ENCODING 8593
SWIDTH 475 0
DWIDTH 11 0
BBX 1 1 0 0
BITMAP
00
ENDCHAR
STARTCHAR arrowright
ENCODING 8594
SWIDTH 475 0
DWIDTH 11 0
BBX 1 1 0 0
BITMAP
00
ENDCHAR
STARTCHAR arrowdown
ENCODING 8595
SWIDTH 475 0
DWIDTH 11 0
BBX 1 1 0 0
BITMAP
00
ENDCHAR
STARTCHAR arrowboth
ENCODING 8596
SWIDTH 475 0
DWIDTH 11 0
BBX 1 1 0 0
BITMAP
00
ENDCHAR
STARTCHAR arrowupdn
ENCODING 8597
SWIDTH 475 0
DWIDTH 11 0
BBX 1 1 0 0
BITMAP
00
ENDCHAR
STARTCHAR arrowupdnbse
ENCODING 8616
SWIDTH 475 0
DWIDTH 11 0
BBX 1 1 0 0
BITMAP
00
ENDCHAR
STARTCHAR partialdiff
ENCODING 8706
SWIDTH 475 0
DWIDTH 11 0
BBX 1 1 0 0
BITMAP
00
ENDCHAR
STARTCHAR Delta
ENCODING 8710
SWIDTH 475 0
DWIDTH 11 0
BBX 1 1 0 0
BITMAP
00
ENDCHAR
STARTCHAR product
ENCODING 8719
SWIDTH 475 0
DWIDTH 11 0
BBX 1 1 0 0
BITMAP
00
ENDCHAR
STARTCHAR summation
ENCODING 8721
SWIDTH 475 0
DWIDTH 11 0
BBX 1 1 0 0
BITMAP
00
ENDCHAR
STARTCHAR minus
ENCODING 8722
SWIDTH 475 0
DWIDTH 11 0
BBX 1 1 0 0
BITMAP
00
ENDCHAR
STARTCHAR fraction.dup4
ENCODING 8725
SWIDTH 475 0
DWIDTH 11 0
BBX 1 1 0 0
BITMAP
00
ENDCHAR
STARTCHAR periodcentered.dup5
ENCODING 8729
SWIDTH 475 0
DWIDTH 11 0
BBX 1 1 0 0
BITMAP
00
ENDCHAR
STARTCHAR radical
ENCODING 8730
SWIDTH 475 0
DWIDTH 11 0
BBX 1 1 0 0
BITMAP
00
ENDCHAR
STARTCHAR infinity
ENCODING 8734
SWIDTH 475 0
DWIDTH 11 0
BBX 1 1 0 0
BITMAP
00
ENDCHAR
STARTCHAR orthogonal
ENCODING 8735
SWIDTH 475 0
DWIDTH 11 0
BBX 1 1 0 0
BITMAP
00
ENDCHAR
STARTCHAR intersection
ENCODING 8745
SWIDTH 475 0
DWIDTH 11 0
BBX 1 1 0 0
BITMAP
00
ENDCHAR
STARTCHAR integral
ENCODING 8747
SWIDTH 475 0
DWIDTH 11 0
BBX 1 1 0 0
BITMAP
00
ENDCHAR
STARTCHAR approxequal
ENCODING 8776
SWIDTH 475 0
DWIDTH 11 0
BBX 1 1 0 0
BITMAP
00
ENDCHAR
STARTCHAR notequal
ENCODING 8800
SWIDTH 475 0
DWIDTH 11 0
BBX 1 1 0 0
BITMAP
00
ENDCHAR
STARTCHAR equivalence
ENCODING 8801
SWIDTH 475 0
DWIDTH 11 0
BBX 1 1 0 0
BITMAP
00
ENDCHAR
STARTCHAR lessequal
ENCODING 8804
SWIDTH 475 0
DWIDTH 11 0
BBX 1 1 0 0
BITMAP
00
ENDCHAR
STARTCHAR greaterequal
ENCODING 8805
SWIDTH 475 0
DWIDTH 11 0
BBX 1 1 0 0
BITMAP
00
ENDCHAR
STARTCHAR house
ENCODING 8962
SWIDTH 475 0
DWIDTH 11 0
BBX 1 1 0 0
BITMAP
00
ENDCHAR
STARTCHAR revlogicalnot
ENCODING 8976
SWIDTH 475 0
DWIDTH 11 0
BBX 1 1 0 0
BITMAP
00
ENDCHAR
STARTCHAR integraltp
ENCODING 8992
SWIDTH 475 0
DWIDTH 11 0
BBX 1 1 0 0
BITMAP
00
ENDCHAR
STARTCHAR integralbt
ENCODING 8993
SWIDTH 475 0
DWIDTH 11 0
BBX 1 1 0 0
BITMAP
00
ENDCHAR
STARTCHAR SF100000
ENCODING 9472
SWIDTH 475 0
DWIDTH 11 0
BBX 1 1 0 0
BITMAP
00
ENDCHAR
STARTCHAR SF110000
ENCODING 9474
SWIDTH 475 0
DWIDTH 11 0
BBX 1 1 0 0
BITMAP
00
ENDCHAR
STARTCHAR SF010000
ENCODING 9484
SWIDTH 475 0
DWIDTH 11 0
BBX 1 1 0 0
BITMAP
00
ENDCHAR
STARTCHAR SF030000
ENCODING 9488
SWIDTH 475 0
DWIDTH 11 0
BBX 1 1 0 0
BITMAP
00
ENDCHAR
STARTCHAR SF020000
ENCODING 9492
SWIDTH 475 0
DWIDTH 11 0
BBX 1 1 0 0
BITMAP
00
ENDCHAR
STARTCHAR SF040000
ENCODING 9496
SWIDTH 475 0
DWIDTH 11 0
BBX 1 1 0 0
BITMAP
00
ENDCHAR
STARTCHAR SF080000
ENCODING 9500
SWIDTH 475 0
DWIDTH 11 0
BBX 1 1 0 0
BITMAP
00
ENDCHAR
STARTCHAR SF090000
ENCODING 9508
SWIDTH 475 0
DWIDTH 11 0
BBX 1 1 0 0
BITMAP
00
ENDCHAR
STARTCHAR SF060000
ENCODING 9516
SWIDTH 475 0
DWIDTH 11 0
BBX 1 1 0 0
BITMAP
00
ENDCHAR
STARTCHAR SF070000
ENCODING 9524
SWIDTH 475 0
DWIDTH 11 0
BBX 1 1 0 0
BITMAP
00
ENDCHAR
STARTCHAR SF050000
ENCODING 9532
SWIDTH 475 0
DWIDTH 11 0
BBX 1 1 0 0
BITMAP
00
ENDCHAR
STARTCHAR SF430000
ENCODING 9552
SWIDTH 475 0
DWIDTH 11 0
BBX 1 1 0 0
BITMAP
00
ENDCHAR
STARTCHAR SF240000
ENCODING 9553
SWIDTH 475 0
DWIDTH 11 0
BBX 1 1 0 0
BITMAP
00
ENDCHAR
STARTCHAR SF510000
ENCODING 9554
SWIDTH 475 0
DWIDTH 11 0
BBX 1 1 0 0
BITMAP
00
ENDCHAR
STARTCHAR SF520000
ENCODING 9555
SWIDTH 475 0
DWIDTH 11 0
BBX 1 1 0 0
BITMAP
00
ENDCHAR
STARTCHAR SF390000
ENCODING 9556
SWIDTH 475 0
DWIDTH 11 0
BBX 1 1 0 0
BITMAP
00
ENDCHAR
STARTCHAR SF220000
ENCODING 9557
SWIDTH 475 0
DWIDTH 11 0
BBX 1 1 0 0
BITMAP
00
ENDCHAR
STARTCHAR SF210000
ENCODING 9558
SWIDTH 475 0
DWIDTH 11 0
BBX 1 1 0 0
BITMAP
00
ENDCHAR
STARTCHAR SF250000
ENCODING 9559
SWIDTH 475 0
DWIDTH 11 0
BBX 1 1 0 0
BITMAP
00
ENDCHAR
STARTCHAR SF500000
ENCODING 9560
SWIDTH 475 0
DWIDTH 11 0
BBX 1 1 0 0
BITMAP
00
ENDCHAR
STARTCHAR SF490000
ENCODING 9561
SWIDTH 475 0
DWIDTH 11 0
BBX 1 1 0 0
BITMAP
00
ENDCHAR
STARTCHAR SF380000
ENCODING 9562
SWIDTH 475 0
DWIDTH 11 0
BBX 1 1 0 0
BITMAP
00
ENDCHAR
STARTCHAR SF280000
ENCODING 9563
SWIDTH 475 0
DWIDTH 11 0
BBX 1 1 0 0
BITMAP
00
ENDCHAR
STARTCHAR SF270000
ENCODING 9564
SWIDTH 475 0
DWIDTH 11 0
BBX 1 1 0 0
BITMAP
00
ENDCHAR
STARTCHAR SF260000
ENCODING 9565
SWIDTH 475 0
DWIDTH 11 0
BBX 1 1 0 0
BITMAP
00
ENDCHAR
STARTCHAR SF360000
ENCODING 9566
SWIDTH 475 0
DWIDTH 11 0
BBX 1 1 0 0
BITMAP
00
ENDCHAR
STARTCHAR SF370000
ENCODING 9567
SWIDTH 475 0
DWIDTH 11 0
BBX 1 1 0 0
BITMAP
00
ENDCHAR
STARTCHAR SF420000
ENCODING 9568
SWIDTH 475 0
DWIDTH 11 0
BBX 1 1 0 0
BITMAP
00
ENDCHAR
STARTCHAR SF190000
ENCODING 9569
SWIDTH 475 0
DWIDTH 11 0
BBX 1 1 0 0
BITMAP
00
ENDCHAR
STARTCHAR SF200000
ENCODING 9570
SWIDTH 475 0
DWIDTH 11 0
BBX 1 1 0 0
BITMAP
00
ENDCHAR
STARTCHAR SF230000
ENCODING 9571
SWIDTH 475 0
DWIDTH 11 0
BBX 1 1 0 0
BITMAP
00
ENDCHAR
STARTCHAR SF470000
ENCODING 9572
SWIDTH 475 0
DWIDTH 11 0
BBX 1 1 0 0
BITMAP
00
ENDCHAR
STARTCHAR SF480000
ENCODING 9573
SWIDTH 475 0
DWIDTH 11 0
BBX 1 1 0 0
BITMAP
00
ENDCHAR
STARTCHAR SF410000
ENCODING 9574
SWIDTH 475 0
DWIDTH 11 0
BBX 1 1 0 0
BITMAP
00
ENDCHAR
STARTCHAR SF450000
ENCODING 9575
SWIDTH 475 0
DWIDTH 11 0
BBX 1 1 0 0
BITMAP
00
ENDCHAR
STARTCHAR SF460000
ENCODING 9576
SWIDTH 475 0
DWIDTH 11 0
BBX 1 1 0 0
BITMAP
00
ENDCHAR
STARTCHAR SF400000
ENCODING 9577
SWIDTH 475 0
DWIDTH 11 0
BBX 1 1 0 0
BITMAP
00
ENDCHAR
STARTCHAR SF540000
ENCODING 9578
SWIDTH 475 0
DWIDTH 11 0
BBX 1 1 0 0
BITMAP
00
ENDCHAR
STARTCHAR SF530000
ENCODING 9579
SWIDTH 475 0
DWIDTH 11 0
BBX 1 1 0 0
BITMAP
00
ENDCHAR
STARTCHAR SF440000
ENCODING 9580
SWIDTH 475 0
DWIDTH 11 0
BBX 1 1 0 0
BITMAP
00
ENDCHAR
STARTCHAR upblock
ENCODING 9600
SWIDTH 475 0
DWIDTH 11 0
BBX 1 1 0 0
BITMAP
00
ENDCHAR
STARTCHAR dnblock
ENCODING 9604
SWIDTH 475 0
DWIDTH 11 0
BBX 1 1 0 0
BITMAP
00
ENDCHAR
STARTCHAR block
ENCODING 9608
SWIDTH 475 0
DWIDTH 11 0
BBX 1 1 0 0
BITMAP
00
ENDCHAR
STARTCHAR lfblock
ENCODING 9612
SWIDTH 475 0
DWIDTH 11 0
BBX 1 1 0 0
BITMAP
00
ENDCHAR
STARTCHAR rtblock
ENCODING 9616
SWIDTH 475 0
DWIDTH 11 0
BBX 1 1 0 0
BITMAP
00
ENDCHAR
STARTCHAR ltshade
ENCODING 9617
SWIDTH 475 0
DWIDTH 11 0
BBX 1 1 0 0
BITMAP
00
ENDCHAR
STARTCHAR shade
ENCODING 9618
SWIDTH 475 0
DWIDTH 11 0
BBX 1 1 0 0
BITMAP
00
ENDCHAR
STARTCHAR dkshade
ENCODING 9619
SWIDTH 475 0
DWIDTH 11 0
BBX 1 1 0 0
BITMAP
00
ENDCHAR
STARTCHAR filledbox
ENCODING 9632
SWIDTH 475 0
DWIDTH 11 0
BBX 1 1 0 0
BITMAP
00
ENDCHAR
STARTCHAR H22073
ENCODING 9633
SWIDTH 475 0
DWIDTH 11 0
BBX 1 1 0 0
BITMAP
00
ENDCHAR
STARTCHAR H18543
ENCODING 9642
SWIDTH 475 0
DWIDTH 11 0
BBX 1 1 0 0
BITMAP
00
ENDCHAR
STARTCHAR H18551
ENCODING 9643
SWIDTH 475 0
DWIDTH 11 0
BBX 1 1 0 0
BITMAP
00
ENDCHAR
STARTCHAR filledrect
ENCODING 9644
SWIDTH 475 0
DWIDTH 11 0
BBX 1 1 0 0
BITMAP
00
ENDCHAR
STARTCHAR triagup
ENCODING 9650
SWIDTH 475 0
DWIDTH 11 0
BBX 1 1 0 0
BITMAP
00
ENDCHAR
STARTCHAR triagrt
ENCODING 9658
SWIDTH 475 0
DWIDTH 11 0
BBX 1 1 0 0
BITMAP
00
ENDCHAR
STARTCHAR triagdn
ENCODING 9660
SWIDTH 475 0
DWIDTH 11 0
BBX 1 1 0 0
BITMAP
00
ENDCHAR
STARTCHAR triaglf
ENCODING 9668
SWIDTH 475 0
DWIDTH 11 0
BBX 1 1 0 0
BITMAP
00
ENDCHAR
STARTCHAR lozenge
ENCODING 9674
SWIDTH 475 0
DWIDTH 11 0
BBX 1 1 0 0
BITMAP
00
ENDCHAR
STARTCHAR circle
ENCODING 9675
SWIDTH 475 0
DWIDTH 11 0
BBX 1 1 0 0
BITMAP
00
ENDCHAR
STARTCHAR H18533
ENCODING 9679
SWIDTH 475 0
DWIDTH 11 0
BBX 1 1 0 0
BITMAP
00
ENDCHAR
STARTCHAR invbullet
ENCODING 9688
SWIDTH 475 0
DWIDTH 11 0
BBX 1 1 0 0
BITMAP
00
ENDCHAR
STARTCHAR invcircle
ENCODING 9689
SWIDTH 475 0
DWIDTH 11 0
BBX 1 1 0 0
BITMAP
00
ENDCHAR
STARTCHAR openbullet
ENCODING 9702
SWIDTH 475 0
DWIDTH 11 0
BBX 1 1 0 0
BITMAP
00
ENDCHAR
STARTCHAR smileface
ENCODING 9786
SWIDTH 475 0
DWIDTH 11 0
BBX 1 1 0 0
BITMAP
00
ENDCHAR
STARTCHAR invsmileface
ENCODING 9787
SWIDTH 475 0
DWIDTH 11 0
BBX 1 1 0 0
BITMAP
00
ENDCHAR
STARTCHAR sun
ENCODING 9788
SWIDTH 475 0
DWIDTH 11 0
BBX 1 1 0 0
BITMAP
00
ENDCHAR
STARTCHAR female
ENCODING 9792
SWIDTH 475 0
DWIDTH 11 0
BBX 1 1 0 0
BITMAP
00
ENDCHAR
STARTCHAR male
ENCODING 9794
SWIDTH 475 0
DWIDTH 11 0
BBX 1 1 0 0
BITMAP
00
ENDCHAR
STARTCHAR spade
ENCODING 9824
SWIDTH 475 0
DWIDTH 11 0
BBX 1 1 0 0
BITMAP
00
ENDCHAR
STARTCHAR club
ENCODING 9827
SWIDTH 475 0
DWIDTH 11 0
BBX 1 1 0 0
BITMAP
00
ENDCHAR
STARTCHAR heart
ENCODING 9829
SWIDTH 475 0
DWIDTH 11 0
BBX 1 1 0 0
BITMAP
00
ENDCHAR
STARTCHAR diamond
ENCODING 9830
SWIDTH 475 0
DWIDTH 11 0
BBX 1 1 0 0
BITMAP
00
ENDCHAR
STARTCHAR musicalnote
ENCODING 9834
SWIDTH 475 0
DWIDTH 11 0
BBX 1 1 0 0
BITMAP
00
ENDCHAR
STARTCHAR musicalnotedbl
ENCODING 9835
SWIDTH 475 0
DWIDTH 11 0
BBX 1 1 0 0
BITMAP
00
ENDCHAR
STARTCHAR uniF001
ENCODING 61441
SWIDTH 475 0
DWIDTH 11 0
BBX 1 1 0 0
BITMAP
00
ENDCHAR
STARTCHAR uniF002
ENCODING 61442
SWIDTH 475 0
DWIDTH 11 0
BBX 1 1 0 0
BITMAP
00
ENDCHAR
STARTCHAR uniF004
ENCODING 61444
SWIDTH 475 0
DWIDTH 11 0
BBX 1 1 0 0
BITMAP
00
ENDCHAR
STARTCHAR uniF005
ENCODING 61445
SWIDTH 475 0
DWIDTH 11 0
BBX 1 1 0 0
BITMAP
00
ENDCHAR
STARTCHAR uniF001.dup6
ENCODING 64257
SWIDTH 475 0
DWIDTH 11 0
BBX 1 1 0 0
BITMAP
00
ENDCHAR
STARTCHAR uniF002.dup7
ENCODING 64258
SWIDTH 475 0
DWIDTH 11 0
BBX 1 1 0 0
BITMAP
00
ENDCHAR
STARTCHAR .notdef
ENCODING -1
SWIDTH 475 0
DWIDTH 11 0
BBX 13 15 0 0
BITMAP
8008
8008
8008
8008
8008
8008
8008
8008
8008
8008
8008
8008
8008
8008
FFF0
ENDCHAR
STARTCHAR .null
ENCODING -1
SWIDTH 0 0
DWIDTH 0 0
BBX 1 1 0 0
BITMAP
00
ENDCHAR
STARTCHAR nonmarkingreturn
ENCODING -1
SWIDTH 475 0
DWIDTH 11 0
BBX 1 1 0 0
BITMAP
00
ENDCHAR
STARTCHAR glyph155
ENCODING -1
SWIDTH 475 0
DWIDTH 11 0
BBX 1 1 0 0
BITMAP
00
ENDCHAR
ENDFONT
